<svg id="Layer_1" data-name="Layer 1" xmlns="http://www.w3.org/2000/svg" viewBox="0 0 118.2 118.2"><defs><style>.cls-1{fill:#231f20;}</style></defs><title>gear</title><path class="cls-1" d="M341.53,389.41c0-1.51-.08-3-.21-4.48l7.28-4.05A59.31,59.31,0,0,0,345,367.25l-8.31.13a53.06,53.06,0,0,0-4.5-7.77l4.27-7.12a60.46,60.46,0,0,0-10-10l-7.13,4.27a51.62,51.62,0,0,0-7.77-4.49l.13-8.31A59.19,59.19,0,0,0,298,330.31l-4,7.28c-1.48-.13-3-.21-4.49-.21s-3,.08-4.49.21l-4-7.28A59.06,59.06,0,0,0,267.34,334l.13,8.31a51.62,51.62,0,0,0-7.77,4.49l-7.13-4.27a59.7,59.7,0,0,0-10,10l4.27,7.12a53.06,53.06,0,0,0-4.5,7.77l-8.31-.13a59.31,59.31,0,0,0-3.65,13.63l7.27,4.05c-.12,1.48-.2,3-.2,4.48s.08,3,.2,4.49l-7.27,4a59.26,59.26,0,0,0,3.65,13.64l8.31-.14a51.18,51.18,0,0,0,4.5,7.77l-4.28,7.13a60.52,60.52,0,0,0,10,10l7.13-4.28a50.83,50.83,0,0,0,7.77,4.5l-.13,8.31A59.06,59.06,0,0,0,281,448.52l4-7.28c1.48.13,3,.2,4.49.2s3-.07,4.49-.2l4,7.28a59.19,59.19,0,0,0,13.63-3.66l-.13-8.31a50.83,50.83,0,0,0,7.77-4.5l7.13,4.28a60.46,60.46,0,0,0,10-10l-4.27-7.13a52,52,0,0,0,4.5-7.77l8.31.14a59.26,59.26,0,0,0,3.65-13.64l-7.28-4C341.45,392.42,341.53,390.93,341.53,389.41Zm-52,24a24,24,0,1,1,24-24A24,24,0,0,1,289.5,413.37Z" transform="translate(-230.4 -330.31)"/></svg>