<svg id="Layer_1" data-name="Layer 1" xmlns="http://www.w3.org/2000/svg" viewBox="0 0 97.19 97.19"><defs><style>.cls-1{fill:#010101;}.cls-2{fill:#961f20;}.cls-3{fill:#fccc9f;}.cls-4{fill:#fbb615;}.cls-5{fill:#2c2e2d;}.cls-6{fill:#c5deb0;}.cls-7{fill:#daeabf;}.cls-8{fill:#fff;}.cls-9{fill:#895033;}.cls-10{fill:#c5ddb0;}.cls-11{fill:#d9e9bf;}.cls-12{fill:#facc9f;}.cls-13{fill:#d9eabf;}.cls-14{fill:#d7e7bd;}.cls-15{fill:#dae9bf;}.cls-16{fill:#c5ddaf;}.cls-17{fill:#d9e8bd;}.cls-18{fill:#962021;}.cls-19{fill:#faf9f9;}.cls-20{fill:#982222;}.cls-21{fill:#f3f2f2;}.cls-22{fill:#f7f8f7;}.cls-23{fill:#d9e7be;}.cls-24{fill:#962020;}.cls-25{fill:#962122;}.cls-26{fill:#f9f8f8;}.cls-27{fill:#f7f0ee;}.cls-28{fill:#c5dfb1;}.cls-29{fill:#f1efef;}.cls-30{fill:#c2d8ad;}.cls-31{fill:#972123;}.cls-32{fill:#972625;}.cls-33{fill:#972928;}.cls-34{fill:#902624;}.cls-35{fill:#c9dfb3;}.cls-36{fill:#efe6e2;}.cls-37{fill:#952625;}.cls-38{fill:#eeedec;}.cls-39{fill:#f1f0ef;}.cls-40{fill:#d1e1b8;}.cls-41{fill:#e4e2e2;}.cls-42{fill:#d2e0b8;}.cls-43{fill:#f0eeee;}.cls-44{fill:#d5e5bb;}.cls-45{fill:#e6d6cf;}.cls-46{fill:#912422;}.cls-47{fill:#784033;}.cls-48{fill:#e9e0db;}.cls-49{fill:#dda027;}.cls-50{fill:#4b4542;}.cls-51{fill:#e5ddd9;}.cls-52{fill:#edd8d2;}.cls-53{fill:#f8f2ee;}.cls-54{fill:#e5c7bd;}</style></defs><title>logo</title><path class="cls-1" d="M355.05,396.2a48.6,48.6,0,1,1-47.77-48.59A48.6,48.6,0,0,1,355.05,396.2Z" transform="translate(-257.85 -347.6)"/><path class="cls-2" d="M308.42,442.06a25.66,25.66,0,0,1-4.88,0,41.92,41.92,0,0,1-4.74-.54c-.38-.06-.54-.21-.56-.65a41.18,41.18,0,0,0-1.55-9.09c-.5-1.83-1.06-3.65-1.73-5.42,0-.12,0-.26-.21-.32a1.51,1.51,0,0,0-.33,1.49c.68,2.05.41,4.15.32,6.24a36,36,0,0,1-.87,6.11c-.09.41-.23.49-.6.35-.61-.22-1.22-.42-1.84-.6-.35-.09-.4-.23-.28-.57a49.3,49.3,0,0,0,1.88-7.16,41.73,41.73,0,0,0,.7-9.85,8.59,8.59,0,0,0-1.34-4.1c-.36-.58-.73-1.15-1.12-1.76a4.8,4.8,0,0,0-.65,1.3,19.68,19.68,0,0,1-3.42,5.5.63.63,0,0,0-.11.82,4.39,4.39,0,0,1,.27.53,4.82,4.82,0,0,0,3.39,2.87c1.22.34,1.24.4.93,1.63-.24.95-.5,1.9-.74,2.85-.07.25-.13.42-.48.3a17.07,17.07,0,0,1-7-4.11,6.94,6.94,0,0,1-1.44-2.19,1,1,0,0,1,0-.73,33,33,0,0,1,4.49-9.26,19.29,19.29,0,0,1,5.71-4.77c.6-.35,1.22-.67,1.85-1a.55.55,0,0,0,.36-.58c0-1,0-1.94,0-2.91,0-.3,0-.42.39-.33a1.75,1.75,0,0,1,.87.49,32.22,32.22,0,0,1,3.4,3.89c.23.32.35.27.61.05a43.94,43.94,0,0,1,4.87-3.35,8.24,8.24,0,0,0-.23,2.53.85.85,0,0,0,.23.63A30.42,30.42,0,0,1,308,415a19,19,0,0,1,1.9,6,.65.65,0,0,1-.07.36,13,13,0,0,0-.65,3.31,41.49,41.49,0,0,0-.21,4.73c0,2.55.12,5.09.21,7.64.06,1.65.17,3.29.26,4.94C309.12,442.12,308.75,441.94,308.42,442.06Z" transform="translate(-257.85 -347.6)"/><path class="cls-3" d="M294.7,388.1A26.17,26.17,0,0,0,300,384a21.93,21.93,0,0,0,2.55-3.05c.14-.22.23-.34.44-.05a17.41,17.41,0,0,0,7.12,5.31,19.84,19.84,0,0,1,6.3,4.51.87.87,0,0,1,.28.62,10.75,10.75,0,0,1-2.16,6.83,17.68,17.68,0,0,1-10.05,6.41,22.13,22.13,0,0,1-11.77-.76,11.27,11.27,0,0,1-7.94-9.1c-.17-.88-.36-1.76-.48-2.65,0-.25,0-.35.25-.39a28.21,28.21,0,0,0,4.6-1.09c-.07.83-.07.83-.86.84a1.13,1.13,0,0,0-.32,0c-.17,0-.17.21-.22.34s.14.18.22.21c.63.2,1.27.38,1.91.57.28.09.33-.05.41-.3a3.22,3.22,0,0,1,2.61-2.61,1.9,1.9,0,0,1,2.34,1.43c.11.35.17.51.58.29.88-.48.9-.46.46-1.37A4.55,4.55,0,0,0,294.7,388.1Z" transform="translate(-257.85 -347.6)"/><path class="cls-4" d="M272.29,381c1.89-1.9,3.91-3.66,5.93-5.41a123.53,123.53,0,0,1,20.54-14.05.57.57,0,0,1,.67,0c7.82,4.8,15.66,9.55,23.09,14.93a55.43,55.43,0,0,1,6,4.93c.19.18.37.38.56.58,0,0,0,.09.07.2-1.15-.49-2.26-1-3.37-1.43a53.47,53.47,0,0,0-10.72-3.25,69.47,69.47,0,0,0-7.05-.82c-2.6-.16-5.2-.25-7.8-.18-2.91.08-5.81.22-8.71.49-2.68.25-5.35.53-8,1a41.63,41.63,0,0,0-11.05,3.17C272.3,381.21,272.27,381.15,272.29,381Z" transform="translate(-257.85 -347.6)"/><path class="cls-5" d="M302.7,378a22,22,0,0,1-2.07,3.2,19.17,19.17,0,0,1-6.18,5.18,29.41,29.41,0,0,1-5.57,2.53,22.28,22.28,0,0,1-4.58.85,7.1,7.1,0,0,1-1.22.11.31.31,0,0,0-.29.12c-.39.56-.77,1.12-1.14,1.7-.15.23.07.2.2.23.32.05.76-.18.95.14s0,.63.06.95a14.84,14.84,0,0,0,3.14,8.26,8.48,8.48,0,0,0,1.42,1.45,1.28,1.28,0,0,1,.36.71,27.08,27.08,0,0,1,1.27,4.32c.06.43.1.85.17,1.28a1.5,1.5,0,0,1-.74,1.6,15.55,15.55,0,0,0-4.59,5.4c-.75,1.37-1.43,2.77-2.08,4.19-.14.32-.27.35-.55.18a26.85,26.85,0,0,1-5.4-4.07,8.63,8.63,0,0,1-2.09-3.09.55.55,0,0,1,.28-.79c3-1.69,4.36-4.45,4.94-7.72a27.72,27.72,0,0,0,.29-5.68c0-1.3-.22-2.6-.38-3.89s-.25-2.52-.36-3.79a17,17,0,0,1,0-2.94,8.91,8.91,0,0,1,1.5-4.26,37.91,37.91,0,0,1,3.39-4.3,2.21,2.21,0,0,1,1.38-.69c1.85-.31,3.72-.52,5.58-.73,1.08-.12,2.17-.17,3.26-.23,2.69-.14,5.38-.25,8.07-.22Z" transform="translate(-257.85 -347.6)"/><path class="cls-6" d="M331.49,408.51c.12-.12.28-.08.43-.11.2.19.13.43.1.65-.28,2.75-.53,5.5-.57,8.27,0,.21-.1.5.1.6s.37-.16.56-.27a1,1,0,0,0,.52-.93c.18-2.92.37-5.84.67-8.74a1.27,1.27,0,0,1,.57-.21c.18.17.14.39.11.61-.27,2.17-.42,4.35-.5,6.53,0,.48-.12,1-.1,1.45,0,.28.09.35.36.19a1.87,1.87,0,0,0,1-1.47c.26-2.28.52-4.56.7-6.85a6.31,6.31,0,0,1,.35-2.11c.18-.24.1-.68.55-.7a1.33,1.33,0,0,1,0,.74c-.29,2.16-.37,4.33-.63,6.48-.1.86-.26,1.7-.31,2.57a1.75,1.75,0,0,0,1.44-1.45c.43-2.59.62-5.2.93-7.81,0-.25,0-.51.26-.66a.44.44,0,0,1,.33-.08.81.81,0,0,1,.11.72c-.3,2.5-.51,5-.89,7.49a.44.44,0,0,0,.06.34,1.25,1.25,0,0,0,.38-.82c.41-1.95.61-3.94.83-5.92a11,11,0,0,0,.12-1.29.81.81,0,0,1,.25-.63h.33c.23.28.13.61.11.93-.17,2.15-.5,4.28-.85,6.4a.7.7,0,0,0,0,.51.73.73,0,0,0,.52-.71c.18-1.26.34-2.53.46-3.8.1-1,.18-2,.24-2.95a.53.53,0,0,1,.25-.5.43.43,0,0,1,.33-.09,1,1,0,0,1,.13.83c-.18,1.94-.33,3.89-.58,5.82,0,.17-.14.39,0,.5s.29-.1.43-.17a2.05,2.05,0,0,0,1.23-1.8c.24-1.66.41-3.34.53-5a.75.75,0,0,1,.16-.5.59.59,0,0,1,.43-.1.66.66,0,0,1,.13.56,46.2,46.2,0,0,1-.57,5c0,.2-.17.5,0,.6s.45-.12.66-.26a.85.85,0,0,0,.29-.62c.22-1.47.4-2.94.49-4.43a2,2,0,0,1,.26-1.13.37.37,0,0,1,.33-.1c.24.3.15.64.13,1-.12,1.39-.27,2.77-.44,4.16,0,.14-.1.31,0,.41s.29,0,.44-.1a1.25,1.25,0,0,0,.76-1.13,31.75,31.75,0,0,0,.11-4,2.28,2.28,0,0,1,.05-.64,1.09,1.09,0,0,1,.54-.21.79.79,0,0,1,.16.66,31.26,31.26,0,0,1-.1,3.87,1,1,0,0,0,0,.52c.2-.15.18-.35.21-.53a36.58,36.58,0,0,0,.09-3.92,1.23,1.23,0,0,1,.16-.82l.33-.18c.2.2.15.46.15.71,0,1.18,0,2.36,0,3.55,0,.23-.14.57.21.69s.79-.38.85-.7a16.64,16.64,0,0,0,.32-1.85,24.27,24.27,0,0,0,.24-2.94c0-.32.14-.59.16-.9l.43-.76a1.31,1.31,0,0,1,.15,1,38.44,38.44,0,0,1-.47,4.43,1.83,1.83,0,0,0-.07.46c.17-1.05.33-2.18.42-3.31.13-1.63.23-3.26.35-4.88a12.41,12.41,0,0,1,.59-3.26,11.11,11.11,0,0,0-.59,2.86,17.12,17.12,0,0,0-.13,2.15c0,.17,0,.41-.24.47a1.8,1.8,0,0,0-.34-1.4,12.43,12.43,0,0,1,.57-4c.07-.22.32-.5.05-.68a.77.77,0,0,0-.81.14,1.51,1.51,0,0,0-.59.81,16.87,16.87,0,0,0-.57,2c0,.21-.06.44-.27.56a.79.79,0,0,1-.44-.21,15.65,15.65,0,0,1,.57-2.34,9.46,9.46,0,0,0-.6,1.64,1,1,0,0,1-.28.57,1,1,0,0,1-.45-.2,7.55,7.55,0,0,1,.51-1.8c0-.14.11-.27.14-.41s0-.22-.08-.28a.26.26,0,0,0-.3.06,2,2,0,0,0-.38.64c-.25.5-.33,1.06-.62,1.54l-.45-.16a3.64,3.64,0,0,1,.42-1.52c0-.09.08-.17.1-.25s.3-.42,0-.56a.55.55,0,0,0-.74.24c-.2.36-.33.75-.49,1.12s-.15.49-.38.63-.31,0-.43-.12a7.16,7.16,0,0,1,.61-1.83c-.37-.25-.78.12-1.13-.11a2.36,2.36,0,0,1,.08-1,4.57,4.57,0,0,0,1.28,0,8,8,0,0,1,2.39.23,2.23,2.23,0,0,0,1.94-.24,1.51,1.51,0,0,1,1.4-.16,1.3,1.3,0,0,0,1.56-.51.67.67,0,0,1,.41-.31,2.59,2.59,0,0,1,.07,1,1,1,0,0,1-.21.37c-1.17.9-1.29,2.24-1.44,3.53-.28,2.46-.26,5-.65,7.39-.08.48-.15,1-.24,1.44-.06.31.05.39.35.27a.9.9,0,0,0,.53-.91c0-.92.13-1.83.23-2.74.26-2.44.67-4.87,1.16-7.28a.74.74,0,0,1,.31-.59,9.24,9.24,0,0,1,0,2.29c-.24,1.62-.53,3.23-.71,4.86-.15,1.29-.31,2.58-.41,3.87a13.85,13.85,0,0,1-.61,2.38.25.25,0,0,1-.24.08c-.81-.22-1.37.32-2.16.66a5.55,5.55,0,0,0,1.95.77,2.53,2.53,0,0,1-.3.89,6.93,6.93,0,0,0-2.23-1.14c-.31-.14-.62.06-.91.28.12.21.34.25.52.34a12.48,12.48,0,0,1,2.37,1.25,1,1,0,0,1-.18.46,21.93,21.93,0,0,1-2.86-1.35,1.14,1.14,0,0,0-1.3,0c-.77.47-1.59.87-2.49,1.42a55.64,55.64,0,0,1,5.55,2.58,1.56,1.56,0,0,1-.31.68,30.38,30.38,0,0,0-5.65-2.74.85.85,0,0,0-.77.12l-2.55,1.5c-.36.21-.33.33,0,.54,2.19,1.39,4.35,2.8,6.62,4a.83.83,0,0,1,.38.29,1.25,1.25,0,0,1-.28.47c-2.48-1.28-4.81-2.81-7.15-4.31a.93.93,0,0,0-1.18,0c-.54.39-1.12.72-1.69,1.07-.36.22-.32.38,0,.63,1,.87,2.12,1.67,3.13,2.55a25,25,0,0,0,4.29,3.16.54.54,0,0,1,.33.33.93.93,0,0,1-.32.44c-.68-.5-1.44-.88-2.13-1.35-1.45-1-2.65-2.26-4-3.3-.63-.48-1.24-1-1.86-1.46a.56.56,0,0,0-.78,0c-1.58,1.14-3.2,2.23-4.79,3.38-.47.34-.47.35,0,.59a6.94,6.94,0,0,1,2.29,1.74,35.8,35.8,0,0,0,5.8,5.34c.23.17.51.28.6.59a.69.69,0,0,1-.31.32,13,13,0,0,1-2.47-1.81,45.18,45.18,0,0,1-4.28-4.25,5.45,5.45,0,0,0-2.48-1.56.63.63,0,0,0-.61.05c-.64.46-1.3.89-1.91,1.38,0,.21.2.22.31.29a36.86,36.86,0,0,1,5.93,4.47c1.2,1,2.39,2.11,3.68,3.06a1.77,1.77,0,0,1-.53.45c-2.54-2.06-4.89-4.34-7.55-6.25a16.14,16.14,0,0,0-2.08-1.25.83.83,0,0,0-1,.08c-.7.53-1.39,1.08-2.13,1.57-.3.2-.27.34,0,.53,1.18.8,2.34,1.62,3.53,2.38a43.59,43.59,0,0,1,5.47,4.29,5,5,0,0,1,.88.78,1,1,0,0,1-.44.31,1.42,1.42,0,0,1-.64-.4,65.17,65.17,0,0,0-9.32-6.94.56.56,0,0,0-.77,0c-.76.63-1.58,1.19-2.35,1.81-.44.36-.44.4.09.67a34.44,34.44,0,0,1,6.06,3.91,32.5,32.5,0,0,1,3.4,3.13,1.51,1.51,0,0,1-.57.31,38.35,38.35,0,0,0-3.06-2.78,37.5,37.5,0,0,0-6.23-4.11,1,1,0,0,0-1.31.1c-.52.47-1.09.88-1.63,1.32-.39.31-.38.38.08.54a33.42,33.42,0,0,1,3.32,1.28,15.31,15.31,0,0,1,4,3,19.23,19.23,0,0,0,2.27,2,2,2,0,0,1-.66.31,14.73,14.73,0,0,1-1.75-1.5,26.93,26.93,0,0,0-2.34-2.06,17,17,0,0,0-5.57-2.48.8.8,0,0,0-.72.11c-.71.51-1.38,1.08-2.11,1.71.68.23,1.3.35,1.92.51a12.8,12.8,0,0,1,4,1.9c1.18.81,2.32,1.68,3.49,2.51.14.11.31.2.36.39a1.15,1.15,0,0,1-.53.2,3.15,3.15,0,0,1-1-.59c-1.29-.91-2.51-1.91-3.88-2.7a12.24,12.24,0,0,0-4.81-1.42c-.57-.07-.9.32-1.34.52a23.92,23.92,0,0,1-.1-2.81,8.39,8.39,0,0,1,.29-1.65c.09-.3,0-.38-.29-.39V430c.93-1,.79-2.27,1-3.46,0-.11,0-.23-.06-.3s-.19,0-.28.08-.36.37-.66.24c0-.26-.07-.53.07-.78a1.41,1.41,0,0,0,1.1-1.28,4.42,4.42,0,0,0,0-1.31c-.44,0-.55.6-1,.56v-.54a2,2,0,0,1,.52-.67,1.35,1.35,0,0,0,.44-1.54c-.21-.08-.4.24-.62.06.24-.72.24-.72,1.48-.63a1.34,1.34,0,0,1,.23.86,41,41,0,0,1,.08,5.54c-.12,1.64-.22,3.28-.33,4.93,0,.1,0,.23.07.29s.2-.05.28-.11a1.73,1.73,0,0,0,.95-1.51c0-.51.07-1,.07-1.55,0-2.46.16-4.91.34-7.36a1.42,1.42,0,0,1,.26-.91l.32,0a.82.82,0,0,1,.15.66c-.17,1.53-.21,3.07-.28,4.61-.06,1.36-.19,2.72-.14,4.09,0,.13-.05.31.12.38s.23-.07.33-.15c.64-.49,1.28-1,1.9-1.5a1.21,1.21,0,0,0,.45-1.14c-.18-1.34-.06-2.69-.11-4,0-.71.13-1.4.12-2.1a.53.53,0,0,1,.15-.39l.43.1c.15.2.06.42.06.63,0,1.8,0,3.61,0,5.42,0,.16-.06.37.11.44s.29-.1.41-.2c1.59-1.23,1.3-.77,1.31-2.64a30.44,30.44,0,0,1,.16-3.31l.54.1a.8.8,0,0,1,.12.72,28.36,28.36,0,0,0-.07,3.06c0,.12,0,.28.1.34s.23-.09.33-.15a1.82,1.82,0,0,0,1-1.9,17.65,17.65,0,0,1,.16-3.7l.51-.67a7.92,7.92,0,0,1,0,2.28c-.07.75,0,1.5-.05,2.26,0,.29.11.41.39.21l1.34-1a.81.81,0,0,0,.33-.7c0-1.13.06-2.26.09-3.38s.13-2,.17-3a2.9,2.9,0,0,1,.55-.75c.24.32.14.68.12,1-.1,1.8-.21,3.61-.18,5.43,0,.45.09.5.45.24s1-.71,1.49-1.06a1,1,0,0,0,.44-.81c.12-2.08.11-4.16.34-6.23a4.17,4.17,0,0,1,.35-2.09.78.78,0,0,1,.32-.33c.22.22.16.5.13.76-.21,2.38-.39,4.76-.39,7.14a1.08,1.08,0,0,0,.09.61,7.76,7.76,0,0,0,1.73-1.28c.15-.17.11-.41.12-.63.09-3,.28-6,.65-9.06A.93.93,0,0,1,331.49,408.51Z" transform="translate(-257.85 -347.6)"/><path class="cls-6" d="M324.7,376.07a2.81,2.81,0,0,1-.67-.52c0-.36.32-.55.55-.77a2.91,2.91,0,0,0,.81-1.44,17.8,17.8,0,0,1-2,1.11c-.21.09-.41.25-.66.12a.44.44,0,0,1-.31-.22c.1-.27.37-.32.59-.43a12.18,12.18,0,0,0,2.11-1.27,1.22,1.22,0,0,0,.25-.2c.19-.19.49-.41.32-.66s-.41.06-.61.14c-1.24.54-2.43,1.21-3.72,1.66l-.57-.42c.11-.16.3-.18.47-.25a35.28,35.28,0,0,0,4.09-1.91,1,1,0,0,0,.56-.51c-.93.38-1.8.74-2.67,1.07s-1.76.63-2.65.93a1.34,1.34,0,0,1-.63.09l-.42-.3c.1-.25.34-.24.54-.31a48.08,48.08,0,0,0,5.53-2.12,2.47,2.47,0,0,0,1.14-.95,1.7,1.7,0,0,0-.55.2,63.16,63.16,0,0,1-7.59,2.42h-.16l-.58-.41a4.53,4.53,0,0,1,1.52-.5,63.15,63.15,0,0,0,6.7-2.19,11.29,11.29,0,0,0,1.39-.7,2,2,0,0,0,.93-1.52,18.75,18.75,0,0,1-2.89,1.41c-1.82.68-3.71,1.14-5.58,1.66-1.09.3-2.13.75-3.22,1.06a2.12,2.12,0,0,1-.64-.43c.15-.19.37-.19.57-.26,2.65-.94,5.38-1.58,8-2.46a13.37,13.37,0,0,0,3.21-1.49,2,2,0,0,0,1-1.66c0-.44.11-.87.1-1.31-.18-.06-.27.05-.37.11a37.72,37.72,0,0,1-9.59,4.18c-1.55.48-3.12.86-4.69,1.21a3.11,3.11,0,0,1-.8.08l-.44-.3c0-.36.31-.29.5-.33,1.9-.44,3.78-.91,5.64-1.47a36,36,0,0,0,9.28-4.11,1.25,1.25,0,0,0,.62-1.06c0-.4-.11-.5-.49-.35-.85.33-1.71.67-2.53,1.06-4.47,2.13-9.24,3.26-14,4.42a4,4,0,0,1-1.58.26,1.06,1.06,0,0,1-.44-.29c0-.32.33-.28.53-.33,2.94-.64,5.83-1.42,8.72-2.23a57,57,0,0,0,7.39-2.85c.72-.32,1.46-.59,2.3-.92a1.11,1.11,0,0,0-.55.05A41.27,41.27,0,0,0,319,363a28.21,28.21,0,0,1-6.09,1.8,31.57,31.57,0,0,1-4,.7l-.64-.4a1.17,1.17,0,0,1,.7-.23c2.53-.46,5-1,7.52-1.67a31.17,31.17,0,0,0,3.95-1.56,17.54,17.54,0,0,1,1.65-.64c.06,0-.05-.09,0,0s0,0,0,0a9.63,9.63,0,0,1-1.39.41c-3,.7-6,1.51-8.93,2.25-1,.25-2,.46-3.06.64a5.45,5.45,0,0,1-1.71,0,2.2,2.2,0,0,1-.67-.41c.18-.31.52-.25.78-.25a17.79,17.79,0,0,0,4.35-.69c3.82-.87,7.59-1.92,11.4-2.81a26.2,26.2,0,0,1,4.41-.74A7,7,0,0,0,329,359c.17-.05.38-.15.32-.36s-.27-.11-.41-.08c-3.26.69-6.57,1-9.82,1.7-4.64.93-9.34,1.46-14,2.34a2.7,2.7,0,0,1-.85.07l-.67-.4a.8.8,0,0,1,.55-.19c3.39-.64,6.8-1.16,10.2-1.71s6.77-1.19,10.15-1.74c1.3-.22,2.6-.37,3.89-.65,1-.23,1.06-.26,1-1.3a.34.34,0,0,1,.05-.26,12.7,12.7,0,0,1,2,1.2l-.08.07c-.21.15-.6,0-.7.3a4.06,4.06,0,0,0-.16,1.43.31.31,0,0,0,.32.3,4.33,4.33,0,0,0,1.39.08c.7-.15,1.43,0,2.13-.15a2.67,2.67,0,0,1,.73.57,5,5,0,0,1-1.84.26c-.73,0-1.47,0-2.2,0a.58.58,0,0,0-.66.54c-.28,1.24-.17,1.37,1.1,1.4a28.53,28.53,0,0,0,4.53-.49,3,3,0,0,1,1.12,0l.47.41a.48.48,0,0,1-.39.16c-1.57.13-3.12.51-4.69.63-.58,0-1.15,0-1.73,0-.38,0-.6.12-.63.55a11,11,0,0,1-.24,1.49c-.08.41.09.55.48.55,1.15,0,2.3,0,3.44-.13,2-.15,3.9-.39,5.83-.67a1.12,1.12,0,0,1,.63.09.74.74,0,0,1,.3.33.9.9,0,0,1-.68.27,65.47,65.47,0,0,1-9.69.87.89.89,0,0,0-.94.83c0,.31.15.34.35.34.67,0,1.32.13,2,.12,1.31,0,2.62,0,3.93,0,2-.08,4.09-.07,6.12-.3a3.14,3.14,0,0,1,.75,0,1.06,1.06,0,0,1,.35.43,1,1,0,0,1-.69.26c-1.34.15-2.68.2-4,.22-2.6.06-5.2,0-7.81,0a6.22,6.22,0,0,1-.86-.06.64.64,0,0,0-.58.14.9.9,0,0,0,.59.22,35.86,35.86,0,0,0,4.38.53,30.62,30.62,0,0,0,4.78.23c1.58-.12,3.16,0,4.73-.17a2.44,2.44,0,0,1,.54,0,1.85,1.85,0,0,1,.4.56.59.59,0,0,1-.44.15,81.76,81.76,0,0,1-10.5-.08,29.33,29.33,0,0,1-4.47-.63c-.45-.12-.5,0-.38.42a1.13,1.13,0,0,0,1,.92,72.2,72.2,0,0,0,8.8,1.23c2.22.14,4.45,0,6.68.08a2.62,2.62,0,0,1,.74.07,1.37,1.37,0,0,1,.32.53c-.19.19-.43.15-.66.16a68.84,68.84,0,0,1-15.49-1.27c-.21,0-.48-.2-.65,0s.06.4.11.61a1.35,1.35,0,0,0,1.23,1.09,79.26,79.26,0,0,0,8.55,1.08c2.63.19,5.26.41,7.9.43a.78.78,0,0,1,.21,0,.66.66,0,0,1,.23.43c-.21.22-.5.16-.76.17-2.28,0-4.55-.17-6.83-.31-2.51-.16-5-.46-7.49-.78a9.69,9.69,0,0,1-1.68-.37c-.07,0,0,.09,0,0s0,0,.06,0a65.24,65.24,0,0,0,9,1.66c2.62.35,5.24.61,7.87.76a.91.91,0,0,1,.51.16.86.86,0,0,1,.2.43,1.44,1.44,0,0,1-1.09.14c-2.94-.24-5.87-.52-8.78-.95a49.17,49.17,0,0,1-7.87-1.57.22.22,0,0,0-.25,0,2.62,2.62,0,0,0,.84.61,19,19,0,0,0,5,1.58c3.1.64,6.24,1.05,9.38,1.4,1,.12,2,.17,3.05.32a.86.86,0,0,1,.51.16.83.83,0,0,1,.18.43c-.44.3-.91.06-1.36,0a104.51,104.51,0,0,1-11.94-1.66,20.32,20.32,0,0,1-5-1.57.27.27,0,0,0-.24,0,1.56,1.56,0,0,0,1.05,1.37,49,49,0,0,0,8.95,2.15,7.59,7.59,0,0,1,2,.37l-.78.4a13.12,13.12,0,0,1-2.93-.35,47.5,47.5,0,0,1-7.05-1.76.69.69,0,0,0-.5-.08c.42,1.18.84,2.37,1.33,3.52a1.35,1.35,0,0,0,.78.62,23.58,23.58,0,0,0,4,1.22c.21.06.48,0,.59.3s0,.24-.08.34-.41.05-.62,0a22.06,22.06,0,0,1-3.65-1.05.59.59,0,0,0-.53,0c.56,1.18.6,2.64,2,3.35.1.06.22.13.2.29a8.17,8.17,0,0,1-1.85-.08c-.25-.49-.4-1-.62-1.52a1.76,1.76,0,0,0-.41-1.91c-.16-.22-.32-.43-.47-.65a33.73,33.73,0,0,1-1.66-4.14c-1-2.56-1.89-5.15-2.8-7.74a.63.63,0,0,0-.18-.31c-.21.14-.22.38-.27.58-.19.75-.26,1.52-.42,2.28A5.27,5.27,0,0,1,324.7,376.07Z" transform="translate(-257.85 -347.6)"/><path class="cls-6" d="M276.4,392.31a3.21,3.21,0,0,1,.17,1,21.74,21.74,0,0,0-1.5,5.19,4.47,4.47,0,0,0,.5,2.91,28.1,28.1,0,0,1,.77-3.3c.11-.38.21-.76.34-1.13.06-.17.08-.4.33-.44a4,4,0,0,1,.13,1,6.46,6.46,0,0,1-.27,1.25c-.19.82-.41,1.64-.6,2.45a4.3,4.3,0,0,0,.46,3.35c.13-.54.28-1,.43-1.55,0-.17,0-.41.3-.43a8.32,8.32,0,0,1-1.17,4.46,6.61,6.61,0,0,0-3-.11c-.21,0-.57-.05-.54.36a.76.76,0,0,0,.71.67c.26,0,.5-.08.75-.09a2.59,2.59,0,0,1,1.53.1.75.75,0,0,1-.27.34,8.42,8.42,0,0,1-1.41.3c-.49.12-.54.22-.34.66a1.73,1.73,0,0,1,.23.66,4,4,0,0,1-.88.75,4.08,4.08,0,0,1-.89-1.13c-.23-.34-.42-.36-.73-.1a50.88,50.88,0,0,0-4,3.9c-.81.86-1.48,1.84-2.37,2.63a1.69,1.69,0,0,1-.28-.57,61.17,61.17,0,0,1,5.66-5.95c1.19-1.09,1.16-.71.3-2-.22-.33-.41-.68-.63-1s-.41-.48-.73,0c-.71,1-1.45,2-2.23,3-1.07,1.32-2.11,2.67-3.27,3.91a1.21,1.21,0,0,1-.22-.55c.16-.59.67-.92,1-1.35,1.51-1.82,3-3.68,4.34-5.62a.74.74,0,0,0,0-1c-.63-.91-1.22-1.86-1.82-2.8-.27-.43-.34-.43-.62,0a50.17,50.17,0,0,1-4.05,5.44c-.13.15-.21.39-.49.33a1.82,1.82,0,0,1-.2-.75,1.16,1.16,0,0,0,.62-.49,55.93,55.93,0,0,0,3.71-5.08.87.87,0,0,0,0-1c-.41-.67-.84-1.33-1.28-2-.19-.29-.32-.33-.52,0-.85,1.36-1.81,2.63-2.78,3.9a2.32,2.32,0,0,1-.57.64,2.58,2.58,0,0,1-.11-.78c.56-.95,1.3-1.76,1.91-2.67.39-.58.79-1.15,1.16-1.75a.69.69,0,0,0,0-.8c-.38-.61-.75-1.22-1.15-1.82-.19-.28-.3-.22-.45,0-.48.8-1,1.6-1.5,2.36-.2.27-.06.65-.31.89a24.94,24.94,0,0,1,0-4.49c.2.16.15.39.15.6,0,.7,0,1.4,0,2.09.36-.66.77-1.29,1.17-1.94a.89.89,0,0,0,0-1.13,13.5,13.5,0,0,0-1.16-1.74,18.26,18.26,0,0,1,.42-3.13c.38,0,.53.3.66.54a1.83,1.83,0,0,0,1.85.93c1.71,0,3.4.1,5.1.16.45,0,.51-.06.37-.49,0-.05,0-.1-.05-.15-.54-1.4-.54-1.41-2-1.57-1.66-.17-3.33-.13-5-.24-.27,0-.53.09-.8.06a3,3,0,0,1,.19-1,1.21,1.21,0,0,0,.95.28,40.84,40.84,0,0,1,4.94.23,2.35,2.35,0,0,1,1,.26,14.08,14.08,0,0,0,2.37,2c.07.21.12.47.44.28a.8.8,0,0,1,.44.24c-.24,1.19-.23,1.29.22,1.89a7.7,7.7,0,0,1,.62-1.52l.57.28a1.6,1.6,0,0,1-.13.3c-.82,2.31-.85,1.65,0,3.77.27-1.11.61-2.24.94-3.37a.44.44,0,0,1,.2-.25.84.84,0,0,1,.45.2,14.44,14.44,0,0,1-.78,2.9,3.56,3.56,0,0,0,.17,3.09c.16.28.21.61.41,1a19.74,19.74,0,0,1,1.55-5.43A1.67,1.67,0,0,1,276.4,392.31Z" transform="translate(-257.85 -347.6)"/><path class="cls-5" d="M305.31,378.11c2.09.08,4.17.21,6.26.42a66.05,66.05,0,0,1,9.26,1.66c1.2.3,1.34.51,1.4,1.81a9,9,0,0,1-.75,3.92,22.86,22.86,0,0,1-2.26,4.26c-.22.3-.31.21-.42-.05a8.91,8.91,0,0,0-4-4.1c-1.58-.91-3.32-1.52-4.95-2.34a20.06,20.06,0,0,1-5.38-3.4,4.12,4.12,0,0,1-.93-1.91c-.06-.23,0-.3.29-.28C304.34,378.14,304.83,378.11,305.31,378.11Z" transform="translate(-257.85 -347.6)"/><path class="cls-2" d="M308.35,412.84a11.24,11.24,0,0,1,2.27.42c2,.55,4.06.85,6.11,1.2a.82.82,0,0,0,1-.49c.55-1.07,1-2.19,1.43-3.31a5.92,5.92,0,0,1,2.92-3.17.66.66,0,0,1,.7,0,12.89,12.89,0,0,1,1.89,1.33,8.89,8.89,0,0,0,2.52,1.46,2.49,2.49,0,0,1-.8.72,11.28,11.28,0,0,0-3,3.85l-2.12,3.94a1.59,1.59,0,0,1-2.21.95c-2.52-.7-5.1-1.14-7.65-1.71-.22-.05-.42-.09-.51-.32a34,34,0,0,0-2.41-4.69A.81.81,0,0,1,308.35,412.84Z" transform="translate(-257.85 -347.6)"/><path class="cls-7" d="M332.8,384.92a2.4,2.4,0,0,1,.62,1.52c-.31,0-.26.19-.24.4.13,1.12.25,2.25.36,3.37a4.83,4.83,0,0,1,0,.56c-.87-.52-1.54-.1-2.2.35a1,1,0,0,1-.84.17,11.4,11.4,0,0,0-4.69,0,3.23,3.23,0,0,0-1.9,1,.45.45,0,0,1-.31.16,3.13,3.13,0,0,0-2.13,1.58c-.11.19-.19.41-.44.42-.57,0-.5.35-.4.71.19.7.38,1.41.6,2.11.1.33.06.43-.3.52A11.07,11.07,0,0,0,317.7,399a3.36,3.36,0,0,0-1.28,1.2,2.51,2.51,0,0,0-.11,1.58c0,.41-.32.58-.56.79a17.74,17.74,0,0,0-3.7,4.65c-.73,1.29-1.46,2.59-2.21,3.88a1.22,1.22,0,0,1-.35.4l-1.18-.32c-.49-.37-.4-.89-.33-1.38a6.79,6.79,0,0,0-.3-3.1,6.11,6.11,0,0,0-.32-.74.74.74,0,0,1-.12-.56,21.92,21.92,0,0,0,6-3.32,13,13,0,0,0,4.9-8.6c0-.2.07-.39.12-.61a.81.81,0,0,1,.41.47c.23.51.48.36.78.07a13.79,13.79,0,0,0,2.13-2.63.88.88,0,0,1,.61-.45,35,35,0,0,0,9.07-3.94A3.78,3.78,0,0,0,332.8,384.92Z" transform="translate(-257.85 -347.6)"/><path class="cls-7" d="M338.28,429.24a37.52,37.52,0,0,1-3.86-3.14c-1.08-1-2-2.09-3-3.13a5.55,5.55,0,0,0-2.14-1.39c-.12,0-.27-.06-.31-.19s.12-.25.24-.33l5.12-3.62a.56.56,0,0,1,.77,0c1.62,1.28,3.25,2.57,4.8,3.94a17.64,17.64,0,0,0,2.89,1.95c.17.1.37.16.37.41A36.79,36.79,0,0,1,338.28,429.24Z" transform="translate(-257.85 -347.6)"/><path class="cls-8" d="M330,395.15c2.1,0,4.19.1,6.28.3.26,0,.35.1.3.36a7.08,7.08,0,0,1-3.09,4.9,7.31,7.31,0,0,1-7.61.15,6,6,0,0,1-2.9-4.55c-.07-.4,0-.55.44-.64a27.54,27.54,0,0,1,5.13-.51Z" transform="translate(-257.85 -347.6)"/><path class="cls-7" d="M329.35,356.42c.43,1.26.32,1.49-1,1.73-2,.35-4,.65-6,1l-5.17.89-5.64.94-7.39,1.25c-.21,0-.43,0-.64,0-1.21-.64-2.39-1.31-3.56-2-.08-.47.1-.72.66-.9a12.64,12.64,0,0,1,2.27-.44c1.78-.24,3.58-.29,5.37-.36q3.7-.17,7.4-.57a73,73,0,0,0,11.56-2.3,1,1,0,0,1,.79,0A7.66,7.66,0,0,1,329.35,356.42Z" transform="translate(-257.85 -347.6)"/><path class="cls-7" d="M297.74,360.11l-5.6,3.6a8.7,8.7,0,0,1-1.8-1.51c-1.45-1.25-2.85-2.56-4.27-3.85-.61-.55-1.24-1.09-1.81-1.68-.14-.14-.37-.27-.22-.53a35,35,0,0,1,5.5-2.61.6.6,0,0,1,.72.16q3.45,3.1,7.15,5.93C297.57,359.74,297.8,359.83,297.74,360.11Z" transform="translate(-257.85 -347.6)"/><path class="cls-9" d="M338.44,387.63c1.1,0,2.19,0,3.29,0,.35,0,.47.1.45.46-.15,2.11-.28,4.22-.41,6.32-.09,1.44-.16,2.87-.24,4.3,0,.52-.08,1-.1,1.55,0,.27-.16.38-.35.5a5,5,0,0,1-3.27.52,4.15,4.15,0,0,1-1.5-.42c-.25-.13-.34-.25-.11-.53a13.37,13.37,0,0,0,2.53-5.29c0-.22.17-.44-.2-.53s-.21-.31-.25-.49a4.86,4.86,0,0,0-1.34-2.76,2.18,2.18,0,0,0-1.82-.73c-.32.05-.38-.1-.4-.39-.07-.66-.08-1.32-.12-2,0-.4.08-.54.5-.53C336.21,387.64,337.33,387.63,338.44,387.63Z" transform="translate(-257.85 -347.6)"/><path class="cls-6" d="M328,355.69a17.87,17.87,0,0,0-2.5.61c-2.28.58-4.59,1.06-6.91,1.44-2.06.35-4.14.49-6.21.72-.67.08-1.36.12-2,.14-1.83.06-3.66.09-5.47.23a22.82,22.82,0,0,0-4.18.63c-.4.11-.73.3-.75.78-.32-.17-.67-.31-1-.51a.56.56,0,0,0-.63,0c-.18-.24,0-.45.07-.65s.26-.63.37-.95c.21-.65.18-.74-.35-1.2-1.55-1.35-3.07-2.73-4.51-4.21-.15-.15-.39-.27-.33-.56.12-.13.28-.1.42-.13a1.39,1.39,0,0,1,.58.46c1.38,1.38,2.81,2.68,4.27,4,.4.34.45.32.63-.14.36-.9.73-1.8,1.08-2.7.26-.67.24-.71-.31-1.13a9.59,9.59,0,0,1-1.21-1c-.25-.25-.62-.2-.85-.43a3.79,3.79,0,0,1,1.11-.18c.45.35.9.7,1.33,1.07s.49.2.65-.15a4.19,4.19,0,0,1,.6-1.24,8.73,8.73,0,0,1,1.84-.14,6.84,6.84,0,0,1-.54,1.45c-.19.61-.16.65.47.56a31.78,31.78,0,0,1,4.13-.33c.65,0,1.29-.12,1.94-.11,3.32.05,6.64.14,10,.29a6.7,6.7,0,0,1,1.29.42c-.26.23-.58.16-.88.16-3.91,0-7.82-.18-11.73-.1-1.57,0-3.12.2-4.67.36a1.44,1.44,0,0,0-1.42,1.17c-.07.31-.23.59-.29.92a20.79,20.79,0,0,1,3.11-.51,51,51,0,0,1,5.8-.23,68.73,68.73,0,0,0,9.51-.51c1.16-.16,2.32-.11,3.49-.17a4.68,4.68,0,0,1,1.19.52.52.52,0,0,1-.44.16c-2.53.06-5,.36-7.57.55-3.1.23-6.2.2-9.31.23a28.77,28.77,0,0,0-5.46.58,1,1,0,0,0-.88.81c-.07.28,0,.37.3.32h.05a19.43,19.43,0,0,1,4.5-.33c2.87-.09,5.74-.27,8.6-.57,2.64-.27,5.28-.54,7.93-.83a23.11,23.11,0,0,0,2.33-.39,3.09,3.09,0,0,1,.91-.08,1.63,1.63,0,0,1,.66.32,7.31,7.31,0,0,1-2.63.68c-2.39.29-4.78.55-7.17.82-1.84.21-3.68.37-5.52.5s-3.88.17-5.81.23a15.49,15.49,0,0,0-3.95.43,1.19,1.19,0,0,0-.92.74c-.12.38-.07.47.33.39,1-.17,1.91-.32,2.87-.43q1.94-.22,3.87-.27a77.89,77.89,0,0,0,18.72-2.67,6,6,0,0,1,.84-.08A1.45,1.45,0,0,1,328,355.69Z" transform="translate(-257.85 -347.6)"/><path class="cls-4" d="M281.06,379.94a22.11,22.11,0,0,0-3.34,5,12.15,12.15,0,0,0-1.25,5.12c0,.47-.17.53-.57.41a24,24,0,0,1-2.9-.95,6,6,0,0,1-2.39-1.78,2.36,2.36,0,0,1,.1-3.39,7.28,7.28,0,0,1,2.27-1.7A36.12,36.12,0,0,1,281.06,379.94Z" transform="translate(-257.85 -347.6)"/><path class="cls-5" d="M331.21,403.79c-1,0-2,0-3,0a32.59,32.59,0,0,1-8.89-1.27,4.75,4.75,0,0,1-1.11-.54,1.07,1.07,0,0,1,0-1.92A8,8,0,0,1,321,399c.81-.21.79-.18,1.24.54a11.62,11.62,0,0,0,2.39,2.36,6.1,6.1,0,0,0,4.38,1.39c.81,0,1.61,0,2.42-.06a7.31,7.31,0,0,0,3.3-1.46c.26-.17.39-.19.64,0a5.33,5.33,0,0,0,2.62.86,9.34,9.34,0,0,0,3.4-.36,1.69,1.69,0,0,0,1.38-1.88c0-.68.08-1.36.1-2,0-.44.15-.6.63-.45a13.65,13.65,0,0,1,3.43,1.39c.87.58.92,1.1.15,1.8a7.6,7.6,0,0,1-3.21,1.44,36.57,36.57,0,0,1-6.75,1.11C335.12,403.77,333.17,403.79,331.21,403.79Z" transform="translate(-257.85 -347.6)"/><path class="cls-7" d="M328.83,436.27c-.24,0-.37-.2-.52-.35a34.3,34.3,0,0,0-9.07-6.61l-.24-.12c-.26-.15-.39-.27-.05-.52.94-.7,1.87-1.43,2.79-2.16a.37.37,0,0,1,.52,0c2.26,1.54,4.6,3,6.75,4.67,1.16.91,2.23,1.94,3.35,2.92A28.45,28.45,0,0,1,328.83,436.27Z" transform="translate(-257.85 -347.6)"/><path class="cls-7" d="M332.8,433.77a5.09,5.09,0,0,1-1.56-1.2,52.37,52.37,0,0,0-7-5.19c-.63-.42-1.23-.86-1.89-1.32L325.2,424c.26-.19.51-.08.76,0a20.28,20.28,0,0,1,4,2.65c1.83,1.46,3.52,3.09,5.37,4.52a.65.65,0,0,1,.32.48A24.13,24.13,0,0,1,332.8,433.77Z" transform="translate(-257.85 -347.6)"/><path class="cls-6" d="M285.33,431.53a2.38,2.38,0,0,1,.8.39.85.85,0,0,1-.62.27l-.64.1c-.89.18-1.13.5-1.05,1.42a.29.29,0,0,0,.29.31,2.44,2.44,0,0,0,.54,0,29.58,29.58,0,0,1,4.51.24,1.58,1.58,0,0,1,.92.25.67.67,0,0,1-.12.43.66.66,0,0,1-.61.09,28.08,28.08,0,0,0-4.67-.26c-.87,0-.87,0-1.19.81a.37.37,0,0,1-.21.23,32.6,32.6,0,0,1-3.91-2.58c-.06-.89.22-1.78.08-2.68a10.67,10.67,0,0,1-.76,1.51c-.1.15-.16.33-.36.38l-.36-.29a9,9,0,0,1,.78-1.7,5.28,5.28,0,0,0,.45-3.78c-.88,1.49-1.72,2.92-2.71,4.27l-.46-.41c.65-1.13,1.42-2.19,2.05-3.33a5.16,5.16,0,0,1,.45-.8,1.53,1.53,0,0,0,.05-1.88c-.25-.46-.31-.48-.59-.05-1,1.56-2.09,3.08-3.17,4.6a.47.47,0,0,1-.18.19,1.61,1.61,0,0,1-.45-.45c.77-1.19,1.63-2.32,2.43-3.49.36-.53.7-1.09,1.06-1.62a.84.84,0,0,0,.11-.77c-.19-.6-.43-1.17-.65-1.84a5.83,5.83,0,0,0-.74,1.17,33.38,33.38,0,0,1-3.44,4.81.81.81,0,0,1-.24.21,1.4,1.4,0,0,1-.41-.43,42.69,42.69,0,0,0,2.75-3.7c.66-1.05,1.23-2.14,1.86-3.2l1.2.85a16.27,16.27,0,0,0,1.38,3.33,13.68,13.68,0,0,0-.11-1.94.52.52,0,0,1,.12-.5h.05c.4.24,1,.38,1.15.73s-.27.83-.39,1.27a2.41,2.41,0,0,1-.16.45,3,3,0,0,0,.3,3.16,10.74,10.74,0,0,0,3.72,3.62c0,.12-.06.24-.08.36-.05.28.09.4.35.36S285,431.6,285.33,431.53Z" transform="translate(-257.85 -347.6)"/><path class="cls-7" d="M277.79,360.35a24.79,24.79,0,0,1,2.81-2.07c.21-.06.32.11.45.22,1.14,1.05,2.25,2.12,3.37,3.18,1.37,1.29,2.79,2.52,4.16,3.82.13.11.32.19.31.41l-3,2.08c-.42,0-.62-.33-.87-.55-2.17-1.9-4.33-3.81-6.4-5.81-.29-.29-.52-.64-.8-.94C277.75,360.6,277.68,360.48,277.79,360.35Z" transform="translate(-257.85 -347.6)"/><path class="cls-7" d="M351,385.13a26.69,26.69,0,0,1,.79,3.86c.07.64,0,.73-.62.72-1.51,0-3-.22-4.49-.37-.86-.09-1.71-.19-2.56-.35-.28-.05-.6-.11-.45-.54a8.23,8.23,0,0,1,.1-1.49c.05-.3,0-.41-.36-.41-1.15,0-2.29,0-3.44,0-.43,0-.46-.15-.37-.49.14-.56.28-1.14.43-1.7.2-.18.43-.12.66-.09a61.54,61.54,0,0,0,8.68.68,8.47,8.47,0,0,0,1-.06C350.63,384.88,350.87,384.86,351,385.13Z" transform="translate(-257.85 -347.6)"/><path class="cls-7" d="M262,407.78a29.83,29.83,0,0,0,2.47-3c.73-1,1.42-2,2.1-3,.22-.33.34-.35.56,0,.71,1.13,1.44,2.26,2.18,3.38a.31.31,0,0,1,0,.42c-.95,1.43-2,2.78-3.06,4.12-.85,1.06-1.7,2.12-2.63,3.11A31,31,0,0,1,262,407.78Z" transform="translate(-257.85 -347.6)"/><path class="cls-7" d="M324,353.76c-.05.26-.26.2-.43.2a37.41,37.41,0,0,0-5.39.42c-.67.08-1.36.08-2,.12-2.75.15-5.5,0-8.24.13a28.46,28.46,0,0,0-5.2.58,6.91,6.91,0,0,1-.82.08,12.42,12.42,0,0,1,.62-1.81c.14-.36.5-.41.8-.46,1.05-.19,2.12-.27,3.19-.36,2.72-.2,5.45-.13,8.18-.08,2.13,0,4.26.08,6.4.09A20.52,20.52,0,0,1,324,353.76Z" transform="translate(-257.85 -347.6)"/><path class="cls-7" d="M352.22,392.87a3.22,3.22,0,0,1-.41.56c-.38.35-.77.69-1.38.45a1.81,1.81,0,0,0-1.91.33c-.48.4-1,.13-1.44.06a9.15,9.15,0,0,0-3.13-.2c-.24.05-.55.11-.71-.22,0-1.58.22-3.15.35-4.72a1,1,0,0,1,.59-.05c2.38.36,4.78.51,7.17.74.32,0,.63.05.62.49A14.61,14.61,0,0,1,352.22,392.87Z" transform="translate(-257.85 -347.6)"/><path class="cls-7" d="M343.47,423.31a24.66,24.66,0,0,1-4.39-3.13c-1.18-1-2.42-2-3.66-3-.33-.26-.23-.35.05-.52.74-.47,1.48-.94,2.21-1.42a.49.49,0,0,1,.59,0c.87.54,1.74,1.07,2.6,1.62a49.21,49.21,0,0,0,4.49,2.63c.17.09.37.15.4.39A26,26,0,0,1,343.47,423.31Z" transform="translate(-257.85 -347.6)"/><path class="cls-7" d="M325.68,437.87a.87.87,0,0,1-.63-.25c-.89-.81-1.8-1.59-2.65-2.44a12.07,12.07,0,0,0-4.45-2.74c-.7-.26-1.42-.5-2.13-.74-.35-.12-.43-.28-.1-.54.69-.53,1.38-1.07,2.06-1.63a.8.8,0,0,1,1-.08,36,36,0,0,1,6.91,4.61c.8.72,1.62,1.41,2.43,2.11.12.11.25.22.13.41A17.26,17.26,0,0,1,325.68,437.87Z" transform="translate(-257.85 -347.6)"/><path class="cls-7" d="M310.58,366.44l5-1.26a56.57,56.57,0,0,0,10.51-3.56c.85-.41,1.75-.75,2.63-1.11.45-.18.57-.09.58.39a1.39,1.39,0,0,1-.69,1.34,36.93,36.93,0,0,1-9.36,4.13c-2,.59-4,1.11-6,1.54,0,0-.07.07-.11.11Z" transform="translate(-257.85 -347.6)"/><path class="cls-7" d="M347,374.77a6.65,6.65,0,0,1-2.27.08c-.24,0-.5-.07-.75-.07-2.09,0-4.17-.25-6.25-.42a70.11,70.11,0,0,1-7.37-1,2,2,0,0,1-1.67-1.91c0-.39.3-.26.47-.23.83.13,1.64.31,2.47.44,1.43.22,2.86.43,4.29.61a77.56,77.56,0,0,0,9.88.33A13.28,13.28,0,0,1,347,374.77Z" transform="translate(-257.85 -347.6)"/><path class="cls-7" d="M336.14,431.19a3.66,3.66,0,0,1-1.52-1.05,74.88,74.88,0,0,0-7.22-5.81c-.39-.25-.79-.48-1.2-.7-.23-.12-.32-.21-.06-.39.66-.46,1.3-.94,2-1.41a.53.53,0,0,1,.51-.08,6.52,6.52,0,0,1,2.95,1.94,46.69,46.69,0,0,0,3.66,3.65c.88.79,1.87,1.43,2.75,2.22A16.65,16.65,0,0,1,336.14,431.19Z" transform="translate(-257.85 -347.6)"/><path class="cls-7" d="M322.32,439.27c-1.15-.82-2.33-1.6-3.45-2.46a14.42,14.42,0,0,0-6.07-2.6c-.15,0-.36,0-.41-.18s.15-.26.27-.36l1.87-1.53a.78.78,0,0,1,.75-.16,17.06,17.06,0,0,1,6.28,2.93,13.17,13.17,0,0,1,1,.95,29.72,29.72,0,0,1,2.44,2.32A19.79,19.79,0,0,1,322.32,439.27Z" transform="translate(-257.85 -347.6)"/><path class="cls-7" d="M281.12,357.93a17.9,17.9,0,0,1,2.39-1.48c.24-.15.37,0,.51.17,1.18,1,2.33,2.12,3.49,3.18,1.35,1.24,2.74,2.43,4.05,3.7.12.12.34.18.26.42l-2.5,1.69c-.23.14-.36-.05-.51-.17-.91-.72-1.75-1.52-2.62-2.3-1.69-1.52-3.33-3.1-4.95-4.7C281.09,358.29,280.87,358.17,281.12,357.93Z" transform="translate(-257.85 -347.6)"/><path class="cls-7" d="M271.31,366.69a19.42,19.42,0,0,1,2.15-2.38c.31.05.27.3.27.5.09,3.56.22,7.11.09,10.67a5.06,5.06,0,0,1-.35,2.43l-2.79,2.74a.52.52,0,0,1-.14-.5c.23-2.08.33-4.18.47-6.28,0-.1,0-.21,0-.32,0-2,.18-4,.11-6A1.33,1.33,0,0,1,271.31,366.69Z" transform="translate(-257.85 -347.6)"/><path class="cls-7" d="M313.59,368.32c1-.35,2.07-.49,3.1-.76a48,48,0,0,0,10.18-3.8c.68-.36,1.32-.8,2-1.19.1-.06.19-.22.32-.12s.07.2.06.3c-.09.67-.15,1.35-.29,2s-.72.91-1.21,1.21a18.47,18.47,0,0,1-5,2c-1.87.53-3.75,1.05-5.59,1.69a5.11,5.11,0,0,1-1.09.27Z" transform="translate(-257.85 -347.6)"/><path class="cls-7" d="M346,419.43a28.12,28.12,0,0,1-3.51-2c-1.28-.78-2.54-1.61-3.82-2.4-.34-.2-.27-.28,0-.45,1-.58,2-1.19,3-1.78a.77.77,0,0,1,.72,0,41.82,41.82,0,0,1,5.25,2.46c.17.1.31.19.32.4A27.36,27.36,0,0,1,346,419.43Z" transform="translate(-257.85 -347.6)"/><path class="cls-7" d="M345.51,372.09c-.16.16-.37.1-.56.1-1.94,0-3.89.06-5.82,0a49.94,49.94,0,0,1-5.17-.49q-2.46-.37-4.89-.87a1.79,1.79,0,0,1-1.11-1.56c0-.26.22-.19.37-.15a14.79,14.79,0,0,0,2.73.52c.92.08,1.84.22,2.76.3,2.3.2,4.59.11,6.89.1,1.13,0,2.25-.14,3.38-.09A17.11,17.11,0,0,1,345.51,372.09Z" transform="translate(-257.85 -347.6)"/><path class="cls-7" d="M340.13,383.94a.93.93,0,0,1,.67-1,36.22,36.22,0,0,1,3.59-1.36c.54-.18.73-.43.57-1,0-.31.25-.28.41-.27,1.35.13,2.71.17,4.05.32a.47.47,0,0,1,.29.14,26,26,0,0,1,1.1,3.55c.12.27,0,.4-.26.46a3.27,3.27,0,0,1-.54,0,54,54,0,0,1-9-.56C340.71,384.26,340.34,384.29,340.13,383.94Z" transform="translate(-257.85 -347.6)"/><path class="cls-7" d="M326.1,354.72a16.21,16.21,0,0,1-3.23.64c-1.13.15-2.27.27-3.4.4l-2.56.25-4.2.41a11.05,11.05,0,0,1-1.28.11c-1.07,0-2.15.08-3.21.15-1.51.1-3,0-4.52.1a8.48,8.48,0,0,0-2.05.36c-.44.13-.46,0-.4-.42.17-1.22,1.16-1.09,2-1.24a60.93,60.93,0,0,1,9.26-.46,60.19,60.19,0,0,0,6.84-.39,26.86,26.86,0,0,1,3.8-.26c.67,0,1.35-.1,2-.09A3.23,3.23,0,0,1,326.1,354.72Z" transform="translate(-257.85 -347.6)"/><path class="cls-7" d="M304.22,362.67a18.86,18.86,0,0,1,3.08-.61c1.68-.3,3.37-.61,5.06-.83,2.48-.31,4.92-.82,7.38-1.25,1.49-.25,3-.53,4.48-.77a43.74,43.74,0,0,0,4.94-.9c.19-.05.33,0,.37.19a.47.47,0,0,1-.34.59,8.44,8.44,0,0,1-1.81.46,26,26,0,0,0-4.64.78c-3.1.76-6.19,1.57-9.3,2.32-1.68.41-3.36.84-5.07,1.11a13.62,13.62,0,0,0-2,.13C305.61,363.54,304.92,363.09,304.22,362.67Z" transform="translate(-257.85 -347.6)"/><path class="cls-7" d="M338,383.62c-1-.25-1.93-.51-2.9-.75a15.58,15.58,0,0,1-2-.74,1.28,1.28,0,0,1-.73-.81L331,377.71a3.59,3.59,0,0,1,1.21.31,52.39,52.39,0,0,0,7.54,1.81,19.17,19.17,0,0,1,2,.32c-.79.39-1.55.82-2.36,1.16a1.72,1.72,0,0,0-1,1.2C338.23,382.89,338.1,383.25,338,383.62Z" transform="translate(-257.85 -347.6)"/><path class="cls-7" d="M327.39,355.38a59.14,59.14,0,0,1-6.18,1.49c-2,.42-4.11.72-6.19.95-1.54.17-3.09.28-4.64.36a63.24,63.24,0,0,0-8.91.74l-.16,0c-.29,0-.6.39-.85,0-.15-.22.38-1.14.67-1.25a7,7,0,0,1,2.35-.49c1.11,0,2.21-.16,3.33-.14,2.34,0,4.67-.22,7-.4q2.85-.23,5.69-.59a40,40,0,0,0,7-1,.81.81,0,0,1,.27,0C327,355,327.15,355.33,327.39,355.38Z" transform="translate(-257.85 -347.6)"/><path class="cls-7" d="M285.59,368.21l-2.19,1.61c-.23.14-.36-.05-.51-.16a32.84,32.84,0,0,1-2.58-2.28c-1.18-1.13-2.41-2.21-3.53-3.4-.4-.41-.73-.88-1.15-1.28-.11-.1-.25-.23-.1-.41a16.58,16.58,0,0,1,1.79-1.55c.22-.1.33.05.45.18,2.09,2.18,4.37,4.15,6.63,6.14A5.19,5.19,0,0,1,285.59,368.21Z" transform="translate(-257.85 -347.6)"/><path class="cls-7" d="M324.7,376.07c0-.21.15-.32.28-.44a5.69,5.69,0,0,0,1.67-3.73,6,6,0,0,1,.41-1.77c.05-.11.06-.27.22-.26s.17.16.21.27c.38,1.07.75,2.13,1.13,3.19,1,2.84,2.05,5.66,3.14,8.46a4,4,0,0,1,.16.57A65.46,65.46,0,0,0,324.7,376.07Z" transform="translate(-257.85 -347.6)"/><path class="cls-7" d="M340.16,365.06c-1.25.16-2.51.29-3.76.49-.93.15-1.88.13-2.81.27a29.84,29.84,0,0,1-3.54.12c-.47,0-.55-.18-.47-.58a11.63,11.63,0,0,0,.3-1.95c0-.35.23-.39.51-.39.8,0,1.6,0,2.4-.09,1.2-.1,2.36-.35,3.54-.51.38-.05.75,0,1.13-.06A26.47,26.47,0,0,1,340.16,365.06Z" transform="translate(-257.85 -347.6)"/><path class="cls-4" d="M324.29,381.25a17.92,17.92,0,0,1,5.53,2.8c1.3,1.09,1,1.21-.15,1.83a35.84,35.84,0,0,1-6.72,2.6C323.88,386.13,325.15,383.91,324.29,381.25Z" transform="translate(-257.85 -347.6)"/><path class="cls-7" d="M265,416a16.36,16.36,0,0,1,1.62-2,38.78,38.78,0,0,1,3-3.13c.62-.6,1.29-1.13,1.91-1.72.23-.22.36-.1.47.08a13.28,13.28,0,0,1,1,1.46,4.46,4.46,0,0,1-1.19.89.76.76,0,0,0-.42,1.11,2.33,2.33,0,0,1,.08.36,1.28,1.28,0,0,1-.37.52,55.25,55.25,0,0,0-4.24,4.68c-.13.16-.22.46-.53.3A18.82,18.82,0,0,1,265,416Z" transform="translate(-257.85 -347.6)"/><path class="cls-7" d="M293.64,352.13a46.48,46.48,0,0,0,3.71,3.58l1.59,1.44a.51.51,0,0,1,.13.63c-.24.64-.45,1.28-.68,1.92l-.12.08c-.27.15-.45,0-.62-.18-1.76-1.37-3.51-2.74-5.19-4.21-.64-.56-1.32-1.1-1.94-1.7-.13-.12-.37-.21-.22-.47A22.86,22.86,0,0,1,293.64,352.13Z" transform="translate(-257.85 -347.6)"/><path class="cls-7" d="M317.69,421.06c0,1.43-.16,2.86-.11,4.29a10.12,10.12,0,0,0,.1,2,1.61,1.61,0,0,1-.77,1.77L315,430.57c-.1.07-.21.17-.33.12s-.1-.21-.1-.32c0-1.63.06-3.25.2-4.87.07-.79,0-1.57.09-2.36a19.1,19.1,0,0,0,.14-2.51A20.62,20.62,0,0,1,317.69,421.06Z" transform="translate(-257.85 -347.6)"/><path class="cls-7" d="M348.87,378.66c-1.37-.09-2.74-.25-4.1-.4s-2.48-.28-3.72-.46a42.08,42.08,0,0,1-9.28-2.06,5.12,5.12,0,0,1-1.81-1c-.1-.1-.24-.21-.15-.37s.26,0,.38,0a47.26,47.26,0,0,0,7.33,1.53c2.15.34,4.32.55,6.48.76a37.7,37.7,0,0,0,4.11.31A9.18,9.18,0,0,1,348.87,378.66Z" transform="translate(-257.85 -347.6)"/><path class="cls-7" d="M263.86,413.3a5.28,5.28,0,0,1,1.08-1.44q2.37-2.78,4.48-5.74c.26-.35.42-.26.6,0,.49.72,1,1.46,1.44,2.2.15.23,0,.4-.17.55-1.21,1-2.33,2.18-3.46,3.31-.89.9-1.72,1.85-2.53,2.83-.14.18-.27.39-.54.42A16,16,0,0,1,263.86,413.3Z" transform="translate(-257.85 -347.6)"/><path class="cls-7" d="M261.05,403a19.93,19.93,0,0,1,1.37-1.9c.68-.95,1.33-1.91,2-2.87.17-.26.27-.32.48,0,.59.82,1.11,1.67,1.63,2.53.15.24,0,.46-.12.65-.76,1.17-1.51,2.34-2.37,3.44-.57.73-1.16,1.45-1.74,2.17-.11.13-.23.37-.44.09A28.4,28.4,0,0,1,261.05,403Z" transform="translate(-257.85 -347.6)"/><path class="cls-7" d="M275.53,376.09l-1.62,1.43a.66.66,0,0,1-.15-.6,44.51,44.51,0,0,0,.16-6.73c-.06-1.75,0-3.52-.17-5.27a1.6,1.6,0,0,1,.15-1.05,5.76,5.76,0,0,1,.85-.86.3.3,0,0,1,.26,0,2.44,2.44,0,0,1,1.31,1.89c-.07,2.27-.1,4.54-.28,6.81-.09,1.08-.2,2.17-.25,3.26A3,3,0,0,1,275.53,376.09Z" transform="translate(-257.85 -347.6)"/><path class="cls-7" d="M342.52,379.75a27.69,27.69,0,0,1-4-.56,40.43,40.43,0,0,1-6.14-1.5c-.42-.15-.84-.31-1.27-.45a.77.77,0,0,1-.48-.47l-.41-1.14c.13-.14.23-.07.32,0a23.81,23.81,0,0,0,6.6,2c2.37.47,4.76.74,7.14,1.06,1.57.21,3.16.31,4.74.45a6,6,0,0,1,.46,1.19c0,.25-.24.25-.4.25a33.14,33.14,0,0,1-4.11-.31,1,1,0,0,1-.34-.16c-.28-.29-.29-.9-.69-.93s-.74.31-1.11.48C342.75,379.67,342.63,379.7,342.52,379.75Z" transform="translate(-257.85 -347.6)"/><path class="cls-7" d="M319.74,352.25a8.57,8.57,0,0,1-2.72.06c-1-.09-2.08,0-3.11-.07s-2.32-.14-3.49-.12c-1.7,0-3.4.13-5.09.24a10.59,10.59,0,0,0-2,.29c-.33.09-.58,0-.39-.42a6.29,6.29,0,0,1,.85-1.84,25.41,25.41,0,0,1,3.7-.09,45.27,45.27,0,0,1,12.06,1.87Z" transform="translate(-257.85 -347.6)"/><path class="cls-7" d="M342.29,367.54a2.64,2.64,0,0,1-1.24.2c-.89.11-1.79.09-2.68.14-2.39.13-4.77.09-7.16.1-.68,0-1.35-.17-2-.11-.13,0-.31,0-.3-.15a4.36,4.36,0,0,1,.45-1.2c.09-.24.34-.15.53-.15a53,53,0,0,0,8.8-.75c.6-.09,1.2-.15,1.8-.23A17.91,17.91,0,0,1,342.29,367.54Z" transform="translate(-257.85 -347.6)"/><path class="cls-7" d="M331.49,408.51a26.69,26.69,0,0,1-.29,3.09c0,.49-.08,1-.1,1.49,0,.79-.16,1.57-.15,2.35,0,1-.17,2-.1,3a.38.38,0,0,1-.14.38,23.66,23.66,0,0,1-2.12,1.46,25.18,25.18,0,0,1,0-2.89c.1-.78.1-1.57.15-2.34.07-1.22.25-2.42.25-3.64,0-.05.07-.13.12-.16.48-.29.43-.62.1-1a1,1,0,0,1,.11-1.19A8.43,8.43,0,0,1,331.49,408.51Z" transform="translate(-257.85 -347.6)"/><path class="cls-7" d="M310.8,435.28a1.44,1.44,0,0,1,1.63-.64,12.51,12.51,0,0,1,6.49,2.68c.8.63,1.64,1.2,2.47,1.79a1.25,1.25,0,0,1,.4.36,19.41,19.41,0,0,1-2.45.79c-.33.1-.55-.13-.77-.29a19.29,19.29,0,0,0-5.92-3.15,7.41,7.41,0,0,1-1.84-.57Z" transform="translate(-257.85 -347.6)"/><path class="cls-7" d="M276.92,420a3.86,3.86,0,0,1-.72,1.53,30.24,30.24,0,0,1-3.58,5.18.43.43,0,0,1-.31.19,21.06,21.06,0,0,1-2-2.36c-.2-.35.08-.53.27-.73,1.11-1.2,2.27-2.35,3.3-3.63.32-.4.63-.83.94-1.24.11-.14.19-.38.45-.24Z" transform="translate(-257.85 -347.6)"/><path class="cls-7" d="M315.85,412.86a4.06,4.06,0,0,1-1.29-.22.62.62,0,0,1-.11-.56,54.64,54.64,0,0,1,2-8.74c.08-.23.07-.62.52-.52a7.84,7.84,0,0,0,2.7,1.41A4.42,4.42,0,0,1,319,406a55.11,55.11,0,0,0-2.31,5.07c-.17.46-.32.92-.48,1.37C316.11,412.57,316.07,412.78,315.85,412.86Z" transform="translate(-257.85 -347.6)"/><path class="cls-7" d="M328.69,411.75a7.24,7.24,0,0,0-.18,1.91c-.12,1.67-.3,3.34-.26,5,0,.58-.14,1.17-.1,1.76,0,.2-.13.28-.26.37l-2.07,1.52c-.25.18-.37.08-.36-.2a23.82,23.82,0,0,1,.09-3.27.74.74,0,0,0,0-.21c-.06-1.15.1-2.29.12-3.43A23.72,23.72,0,0,1,328.69,411.75Z" transform="translate(-257.85 -347.6)"/><path class="cls-7" d="M298.25,351c.67-.11,1,.47,1.47.77.22.14.41.34.62.5.71.56.71.56.38,1.41s-.77,1.89-1.13,2.84c-.12.32-.26.42-.54.18-1.66-1.48-3.32-3-4.87-4.55a1.13,1.13,0,0,1-.12-.18A28.6,28.6,0,0,1,298.25,351Z" transform="translate(-257.85 -347.6)"/><path class="cls-7" d="M271.64,413.5a16.79,16.79,0,0,0,1.29,2.58c.14.26-.06.4-.2.55q-2.14,2.24-4.05,4.65c-.12.15-.23.34-.47.3a20.41,20.41,0,0,1-1.53-2.48.55.55,0,0,1,.16-.49,50.91,50.91,0,0,1,4.31-4.86C271.28,413.62,271.39,413.43,271.64,413.5Z" transform="translate(-257.85 -347.6)"/><path class="cls-7" d="M266,374.46a27.71,27.71,0,0,1,2.36-3.9c.37.08.27.39.27.61,0,1-.08,2.08-.14,3.11s-.09,2-.16,3.06c-.12,1.69-.2,3.39-.35,5.09,0,.18,0,.4-.21.45s-.33-.17-.4-.34l-1.94-4.26a1.69,1.69,0,0,1-.1-1.06A15.64,15.64,0,0,1,266,374.46Z" transform="translate(-257.85 -347.6)"/><path class="cls-6" d="M266,374.46c-.15.82-.28,1.65-.46,2.47a2.36,2.36,0,0,0,.17,1.61c.64,1.34,1.22,2.7,1.83,4.06l.23.36c.06-.67.14-1.2.17-1.73.08-2.18.28-4.35.35-6.53,0-1.19.12-2.39.18-3.58,0-.19.08-.4-.11-.56a2.91,2.91,0,0,1,.53-.78,2.14,2.14,0,0,1,.16,1.51c-.09,1.3-.1,2.61-.19,3.92-.14,2.07-.22,4.15-.39,6.22-.06.77-.11,1.53-.22,2.3a4.75,4.75,0,0,0-.65,1.94,4.84,4.84,0,0,0-2.61-.58c-.85-.11-1.71-.14-2.57-.24-.16,0-.32,0-.43-.16a.76.76,0,0,1,.11-.44,14.77,14.77,0,0,1,2.74.14c.52,0,1,.08,1.55.14s.48-.09.35-.48a1.14,1.14,0,0,0-1-.8c-.89-.1-1.78-.2-2.67-.33a.67.67,0,0,1-.5-.17,1.85,1.85,0,0,1,.21-.68,16.68,16.68,0,0,0,3.06.49c.2,0,.24-.1.18-.27a11.11,11.11,0,0,0-.56-1.27c-.16-.29-.48-.29-.75-.35a4.45,4.45,0,0,1-1.35-.28l.17-.44c.35-.25.7,0,1,0s.5,0,.31-.39-.28-1-.66-1.33a8.86,8.86,0,0,1,.74-1.63c.34-.14.26-.48.34-.74A8.14,8.14,0,0,1,266,374.46Z" transform="translate(-257.85 -347.6)"/><path class="cls-7" d="M273.24,416.52l1.65,1.79c.11.24-.06.4-.18.58a27.86,27.86,0,0,1-2.57,3.07c-.49.55-1,1-1.51,1.6-.17.2-.32.55-.72.4a14.15,14.15,0,0,1-1.4-1.95c-.13-.2,0-.33.13-.47,1.06-1.33,2.14-2.65,3.33-3.87.24-.24.43-.53.67-.77S272.94,416.48,273.24,416.52Z" transform="translate(-257.85 -347.6)"/><path class="cls-7" d="M278.32,373.78l-2.26,1.86c-.33-.08-.24-.35-.23-.56a94.5,94.5,0,0,0,.5-9.51,1.72,1.72,0,0,1,0-.32c0-.16.07-.33.25-.39s.31.07.41.19a22.11,22.11,0,0,1,1.62,2.22,3,3,0,0,1,.28,1.36,26.46,26.46,0,0,1-.37,4.61A1.11,1.11,0,0,1,278.32,373.78Z" transform="translate(-257.85 -347.6)"/><path class="cls-7" d="M309,365.47a4,4,0,0,1,1.63-.38,42.71,42.71,0,0,0,7.63-1.95c1.76-.7,3.49-1.5,5.28-2.13s3.63-1,5.45-1.4c.14,0,.31-.1.36.1s-.09.24-.24.29c-2.58.92-5,2.22-7.61,3.1-2.15.73-4.35,1.32-6.56,1.86-1.5.37-3,.72-4.53,1.08a2.4,2.4,0,0,0-.23.11Z" transform="translate(-257.85 -347.6)"/><path class="cls-7" d="M261.3,387.93a.5.5,0,0,1,.46-.21c2.09.07,4.18.08,6.26.33a.83.83,0,0,1,.82.62,14,14,0,0,0,.57,1.39c.14.32,0,.49-.31.46-2-.15-4-.2-6-.22a1.45,1.45,0,0,1-1.29-.79,2.31,2.31,0,0,0-.67-.82A1.25,1.25,0,0,1,261.3,387.93Z" transform="translate(-257.85 -347.6)"/><path class="cls-7" d="M343.69,369.37a2.12,2.12,0,0,1-1.23.21c-1.67,0-3.33.16-5,.12-1.84,0-3.67-.23-5.5-.4-1.08-.1-2.15-.29-3.23-.46-.17,0-.41,0-.41-.24s.2-.28.37-.34a1.24,1.24,0,0,1,.42-.05c3.1.23,6.21.1,9.31.06a23.05,23.05,0,0,0,4.22-.3A10.23,10.23,0,0,1,343.69,369.37Z" transform="translate(-257.85 -347.6)"/><path class="cls-6" d="M278.32,373.78c.14-1.13.3-2.26.4-3.4a8.36,8.36,0,0,0-.13-2.82c-.12-.49-.54-.79-.79-1.2a13,13,0,0,0-.89-1.21c-.07-.1-.14-.25-.28-.22s-.14.23-.14.37v2.1c0,2-.23,4-.36,6a7.33,7.33,0,0,1-.17,1.86.33.33,0,0,0,.1.39,1.77,1.77,0,0,1-.53.45c.1-1.11.19-2.23.29-3.35.05-.53.08-1.07.1-1.6a28.8,28.8,0,0,0,.14-3.22c-.06-.95.1-1.89.13-2.84s-.7-1.56-1.44-2.07l.78-.72a6.36,6.36,0,0,0,1.23,1.46c1.54,1.65,3.23,3.15,4.9,4.68a6.35,6.35,0,0,0,1.74,1.39,1,1,0,0,1-.44.32A5.31,5.31,0,0,1,281.5,369c-.76-.63-1.47-1.3-2.19-2,0-.06,0,0,0,0,.93,1.27,1.78,2.6,2.68,3.89a3,3,0,0,1-.73.56,7.39,7.39,0,0,1-1.1-1.51c-.26-.35-.49-.73-.78-1.15-.11,1.37-.18,2.65-.36,3.92a1.67,1.67,0,0,1-.24.7Z" transform="translate(-257.85 -347.6)"/><path class="cls-7" d="M314.68,420.6c-.24,1.93-.28,3.88-.42,5.82a21,21,0,0,0,0,2.63c0,.67-.15,1.32-.12,2,0,.28-.2.42-.37.57s-.56.43-.85.65c-.09.07-.16.23-.31.16s-.09-.22-.08-.33c.06-.68,0-1.37.14-2s.11-1.25.15-1.87a46.13,46.13,0,0,0,.13-5c-.05-.93-.14-1.85-.21-2.77A9.83,9.83,0,0,1,314.68,420.6Z" transform="translate(-257.85 -347.6)"/><path class="cls-3" d="M323.89,406.44c.42-.41.8-.76,1.17-1.13a.6.6,0,0,1,.54-.13c.95.07,1.9.13,2.84.23,1.72.17,3.45.07,5.24.11a1.74,1.74,0,0,1-1.2,1.18c-.88.19-1.76.35-2.63.54a5.72,5.72,0,0,0-2.23,1,.4.4,0,0,1-.52.05C326.06,407.68,325,407.08,323.89,406.44Z" transform="translate(-257.85 -347.6)"/><path class="cls-6" d="M316.93,402.82c-.23,0-.26.22-.32.38a43,43,0,0,0-1.62,6.7,21.37,21.37,0,0,0-.43,2.74c-.19,0-.39,0-.56-.1a24.19,24.19,0,0,1,.5-3.18c.33-1.91.82-3.77,1.34-5.68a4,4,0,0,0-1.45,2.25,41.31,41.31,0,0,0-1,5.73,1,1,0,0,1-.26.74l-.43-.11c-.15-.2-.06-.42,0-.62a47.17,47.17,0,0,1,.82-5.23c-.66,1.12-1.32,2.15-1.89,3.23a3.09,3.09,0,0,0-.27,1.2,2,2,0,0,1-.25,1.08l-.32-.09c-.13-.11-.1-.29-.17-.43-.18.06-.23.24-.37.31l-.76-.2a49.48,49.48,0,0,1,4.41-7.21,8.87,8.87,0,0,1,1.67-1.74,2.48,2.48,0,0,0,.74-.77Z" transform="translate(-257.85 -347.6)"/><path class="cls-7" d="M335.8,406.12c-.07.91-.14,1.81-.22,2.72s-.2,2-.31,3q-.21,1.89-.45,3.78a.8.8,0,0,1-.43.63,7.74,7.74,0,0,1-1.16.73,10.67,10.67,0,0,1,0-1.5c.14-.89.12-1.78.18-2.67.11-1.52.21-3,.43-4.53,0-.18,0-.36,0-.54A4.81,4.81,0,0,0,335.8,406.12Z" transform="translate(-257.85 -347.6)"/><path class="cls-7" d="M338.07,405.29c-.1.86-.21,1.73-.32,2.59-.21,1.71-.3,3.44-.61,5.14a2.94,2.94,0,0,0-.05.59c0,1.17-1,1.43-1.76,2a3.64,3.64,0,0,1,.08-1.65c.24-1.68.37-3.36.52-5a24.26,24.26,0,0,1,.42-3.49A12.33,12.33,0,0,1,338.07,405.29Z" transform="translate(-257.85 -347.6)"/><path class="cls-7" d="M348.32,415a.33.33,0,0,1-.39,0,33.59,33.59,0,0,0-4.85-2.3c-.16-.07-.4-.09-.42-.29s.24-.24.39-.32l2.38-1.35c.21-.12.45-.25.67-.12,1.07.63,2.29,1,3.32,1.72A17.72,17.72,0,0,1,348.32,415Z" transform="translate(-257.85 -347.6)"/><path class="cls-7" d="M283.28,435.83a2.08,2.08,0,0,0,.11-.41c.06-.66.17-.78.82-.78a25.36,25.36,0,0,1,5.43.31,1.69,1.69,0,0,0,.32,0,29.35,29.35,0,0,1-1,3c-.31.24-.65.07-1,0a7.16,7.16,0,0,1-1.26-.35A28.65,28.65,0,0,1,283.28,435.83Z" transform="translate(-257.85 -347.6)"/><path class="cls-7" d="M272.72,427.3a11.6,11.6,0,0,1,1.41-1.87,32.82,32.82,0,0,0,2.59-4c.11-.18.23-.36.41-.66a15.34,15.34,0,0,1,.86,2.52c0,.18-.11.34-.2.49-1,1.6-2.13,3.09-3.17,4.65a1.08,1.08,0,0,1-.43.39A11.82,11.82,0,0,1,272.72,427.3Z" transform="translate(-257.85 -347.6)"/><path class="cls-7" d="M316.72,370.35c0-.19.17-.2.3-.25,2.28-.85,4.66-1.39,7-2.11a16.88,16.88,0,0,0,4.18-1.82.57.57,0,0,1,.33-.16,1.93,1.93,0,0,1-.86,1.8,16.59,16.59,0,0,1-3.49,1.51q-2.85,1-5.76,1.71l-.53.1Z" transform="translate(-257.85 -347.6)"/><path class="cls-7" d="M260.62,398.43c-.1-1,.69-1.52,1.05-2.28.21-.43.52-.81.75-1.23s.28-.31.44,0l1.37,2.18a.48.48,0,0,1,0,.54,53.47,53.47,0,0,1-3.15,4.46.81.81,0,0,1-.18.12A23.53,23.53,0,0,1,260.62,398.43Z" transform="translate(-257.85 -347.6)"/><path class="cls-7" d="M333.3,408c.24.19.15.47.12.7-.2,1.7-.33,3.4-.42,5.11-.06,1.09-.18,2.17-.22,3.26,0,.44-.36.62-.7.8s-.48.52-.69.41-.11-.56-.1-.85a65.64,65.64,0,0,1,.41-6.57c.09-.81.15-1.63.22-2.44Z" transform="translate(-257.85 -347.6)"/><path class="cls-7" d="M352.33,395.35a42.53,42.53,0,0,0-.87,4.61,49.31,49.31,0,0,0-.67,6.05c0,.71-.29.95-1,1.14-.32.1-.36,0-.31-.28a18.8,18.8,0,0,0,.36-2.1c.1-.83.2-1.66.27-2.5.18-1.93.17-3.88.53-5.8a3.81,3.81,0,0,1,1.61-2.6A7.31,7.31,0,0,1,352.33,395.35Z" transform="translate(-257.85 -347.6)"/><path class="cls-7" d="M325.13,416a2.23,2.23,0,0,1,.08,1.35c0,.36-.07.71-.08,1.07,0,1.39-.18,2.78-.1,4.18a.55.55,0,0,1-.28.53L323,424.38c-.22.17-.37.14-.38-.17a44.69,44.69,0,0,1,.21-4.91Z" transform="translate(-257.85 -347.6)"/><path class="cls-7" d="M347.91,376.5c-1.4,0-2.78-.18-4.16-.3s-2.77-.28-4.15-.45c-1.77-.22-3.53-.5-5.29-.81a24.89,24.89,0,0,1-3.9-.94c-.15-.05-.36,0-.48-.25a105.1,105.1,0,0,0,17.33,1.45A6.87,6.87,0,0,1,347.91,376.5Z" transform="translate(-257.85 -347.6)"/><path class="cls-7" d="M342.61,404.54a34.16,34.16,0,0,1-.51,5.15,2.88,2.88,0,0,0-.05.59c0,1.19-1,1.56-1.81,2-.19.11-.28.08-.25-.19.16-1.22.34-2.43.42-3.66s.28-2.37.26-3.57Z" transform="translate(-257.85 -347.6)"/><path class="cls-7" d="M318.66,440.45a14.21,14.21,0,0,1-2.25.55.51.51,0,0,1-.59-.13,11.31,11.31,0,0,0-4.63-2.41.57.57,0,0,1-.27-.16l0-1.16c-.08-.65-.05-.68.54-.55a18.16,18.16,0,0,1,6.95,3.38C318.53,440.08,318.71,440.2,318.66,440.45Z" transform="translate(-257.85 -347.6)"/><path class="cls-7" d="M320.17,421.5a1.34,1.34,0,0,1,.1.94,27.06,27.06,0,0,0-.09,3.6.81.81,0,0,1-.38.76c-.46.31-.87.69-1.3,1-.11.08-.23.2-.38.12s-.1-.22-.1-.35c0-2,0-3.95,0-5.93a3.18,3.18,0,0,1,.1-.52Z" transform="translate(-257.85 -347.6)"/><path class="cls-7" d="M337,362c-.71.1-1.43.19-2.15.32a22,22,0,0,1-4.37.33c-.38,0-.53-.12-.48-.5a1.47,1.47,0,0,0,0-.21c0-1.53,0-1.59,1.51-1.56,1.15,0,2.29-.11,3.44-.11A16.9,16.9,0,0,1,337,362Z" transform="translate(-257.85 -347.6)"/><path class="cls-7" d="M307,364.3a7.29,7.29,0,0,1,1.69-.17c2-.37,4-.91,6.05-1.41l5.77-1.43c.62-.15,1.23-.32,1.86-.43a8.94,8.94,0,0,1-1.82.87,29.07,29.07,0,0,1-6,2.09c-2,.42-3.94.87-5.92,1.24a2.29,2.29,0,0,1-.37,0Z" transform="translate(-257.85 -347.6)"/><path class="cls-7" d="M335.27,386.52c-1.42-.58-1.66-2-2.14-3.16-.1-.24-.34-.55-.14-.73s.5.08.74.18A24.74,24.74,0,0,0,337.9,384c-.2.77-.39,1.55-.59,2.32a.33.33,0,0,1-.38.28C336.38,386.53,335.82,386.53,335.27,386.52Z" transform="translate(-257.85 -347.6)"/><path class="cls-7" d="M274.64,429.28a5.25,5.25,0,0,1,1-1.57c.78-1.17,1.58-2.31,2.34-3.48.25-.38.38-.39.6,0a2,2,0,0,1,0,2.33c-.76,1.19-1.47,2.41-2.22,3.61a.83.83,0,0,1-.37.37A12.93,12.93,0,0,1,274.64,429.28Z" transform="translate(-257.85 -347.6)"/><path class="cls-7" d="M268.28,383.73a1.25,1.25,0,0,1-.08-.89c.16-1.49.23-3,.32-4.49.12-2.18.26-4.35.34-6.53,0-.68.08-1.36.06-2a5.67,5.67,0,0,1,.77-1c.32-.1.27.15.27.31,0,1.06.05,2.12,0,3.17-.1,1.47-.17,2.94-.28,4.4-.14,1.79-.33,3.58-.46,5.36a3.58,3.58,0,0,1-.24.72Z" transform="translate(-257.85 -347.6)"/><path class="cls-7" d="M290.08,434.53a40.57,40.57,0,0,0-6.13-.33c-.3,0-.38-.15-.33-.4s.09-.63.12-.95a.59.59,0,0,1,.56-.6c.61-.09,1.22-.22,1.83-.33,1.33.59,2.67,1.17,4,1.8C290.56,433.93,290.12,434.25,290.08,434.53Z" transform="translate(-257.85 -347.6)"/><path class="cls-7" d="M276.4,392.31c-.43,1.15-.95,2.27-1.29,3.46a10.59,10.59,0,0,0-.57,2.89c0,.06-.05.12-.07.19-.21,0-.21-.19-.27-.3s-.11-.31-.2-.44c-1-1.57-.61-3.14,0-4.71a8.74,8.74,0,0,1,.6-1.81Z" transform="translate(-257.85 -347.6)"/><path class="cls-2" d="M291.39,420.4a7.72,7.72,0,0,1,.5,2.5c.05.77,0,1.55,0,2.32,0,.28-.05.36-.37.3a3.77,3.77,0,0,1-2.24-1.37.68.68,0,0,1-.14-.74,4.51,4.51,0,0,1,1.27-2.15Z" transform="translate(-257.85 -347.6)"/><path class="cls-7" d="M270.23,381.13l-.64.77c-.35-.13-.28-.43-.26-.68,0-.64.07-1.28.14-1.93.19-1.56.3-3.13.39-4.71.11-2,.19-3.94.21-5.91a1.55,1.55,0,0,1,.17-.67,2.89,2.89,0,0,1,.54-.66c.3.06.26.31.26.51a36.82,36.82,0,0,1-.07,3.93c-.06.6,0,1.22,0,1.83,0,1.47-.18,2.93-.29,4.4-.05.66-.08,1.32-.14,2A3.2,3.2,0,0,1,270.23,381.13Z" transform="translate(-257.85 -347.6)"/><path class="cls-7" d="M349.08,401.63c0,.66,0,1.33,0,2a33.2,33.2,0,0,1-.5,3.7c-.06.35-.9,1.05-1.24,1s-.16-.29-.16-.44c0-1.6,0-3.19,0-4.78A6.54,6.54,0,0,0,349.08,401.63Z" transform="translate(-257.85 -347.6)"/><path class="cls-7" d="M313.16,412.4a57,57,0,0,1,1.07-6.49,4.62,4.62,0,0,1,1.75-2.56,7.41,7.41,0,0,1-.45,2c-.59,2.26-1,4.57-1.4,6.87a.34.34,0,0,1-.13.28A3.43,3.43,0,0,1,313.16,412.4Z" transform="translate(-257.85 -347.6)"/><path class="cls-7" d="M277,396.56a30.48,30.48,0,0,0-1.27,4.7.75.75,0,0,1-.17.42,4.2,4.2,0,0,1-.67-3.07,18.48,18.48,0,0,1,1.37-4.88c.07-.16.08-.36.3-.4Z" transform="translate(-257.85 -347.6)"/><path class="cls-7" d="M262,384.69c1.61.1,3.23.24,4.84.42a1,1,0,0,1,.77.56l.13.86c-.07.34-.35.25-.56.23-1.58-.09-3.17-.18-4.75-.29-.31,0-.77.07-.75-.5A6.15,6.15,0,0,1,262,384.69Z" transform="translate(-257.85 -347.6)"/><path class="cls-7" d="M315.54,441.19a36.39,36.39,0,0,1-4,.65c-.22,0-.3,0-.33-.26-.07-.91-.22-1.81-.21-2.72-.05-.5.29-.29.48-.24a11.6,11.6,0,0,1,3.36,1.62,5.78,5.78,0,0,1,.67.53C315.62,440.89,315.8,441,315.54,441.19Z" transform="translate(-257.85 -347.6)"/><path class="cls-7" d="M276.49,431a.69.69,0,0,1,.19-.49c.81-1.2,1.59-2.41,2.28-3.68.07-.13.13-.3.29-.26s.12.21.15.33a5.15,5.15,0,0,1-.42,3.43,9.45,9.45,0,0,1-1,1.88A10.71,10.71,0,0,1,276.49,431Z" transform="translate(-257.85 -347.6)"/><path class="cls-7" d="M344.33,404.12c-.17,2-.31,3.94-.65,5.88a2,2,0,0,1-1.23.89c-.16,0-.12-.13-.1-.24.17-1.22.35-2.43.49-3.65.1-.85.13-1.71.2-2.56A5.8,5.8,0,0,1,344.33,404.12Z" transform="translate(-257.85 -347.6)"/><path class="cls-7" d="M322.35,420a1.48,1.48,0,0,1,.07,1,24,24,0,0,0-.08,3.28,1.07,1.07,0,0,1-.51,1,10.4,10.4,0,0,0-.93.71c-.2.15-.3.08-.29-.15a29,29,0,0,1,.08-3.49,6.26,6.26,0,0,0,0-.75c.26,0,.39-.13.52-.29Z" transform="translate(-257.85 -347.6)"/><path class="cls-7" d="M345.73,403.68s.09.08.09.12a33.71,33.71,0,0,1-.05,4c0,.11,0,.21,0,.32a1.64,1.64,0,0,1-1.34,1.75c-.35.1-.29-.18-.28-.35.07-.62.15-1.24.23-1.86a29.78,29.78,0,0,0,.31-3.66Z" transform="translate(-257.85 -347.6)"/><path class="cls-7" d="M318.45,371.54A3.53,3.53,0,0,1,320,371a49.27,49.27,0,0,0,6.69-2.28c.11,0,.23-.06.42-.11a2.39,2.39,0,0,1-1.26,1.28,40.53,40.53,0,0,1-6.11,2.3l-.15.07Z" transform="translate(-257.85 -347.6)"/><path class="cls-7" d="M311.11,412a6,6,0,0,1,.93-3.34c.5-.74.92-1.53,1.38-2.3a1.43,1.43,0,0,1,.22-.23.62.62,0,0,1,0,.48,39,39,0,0,0-.83,5.27,3.78,3.78,0,0,1-.1.46Z" transform="translate(-257.85 -347.6)"/><path class="cls-7" d="M277.46,402.6c-.33.74-.37,1.57-.75,2.35a4.9,4.9,0,0,1-.57-3.78,28.84,28.84,0,0,1,1-3.64A18,18,0,0,1,277.46,402.6Z" transform="translate(-257.85 -347.6)"/><path class="cls-7" d="M262.56,382.75a35.08,35.08,0,0,1,3.55.42,1.74,1.74,0,0,1,1,1.33c0,.22-.17.2-.31.2-.55,0-1.11-.05-1.65-.12-.91-.1-1.81-.2-2.72-.21a.33.33,0,0,1-.28-.12A7.59,7.59,0,0,1,262.56,382.75Z" transform="translate(-257.85 -347.6)"/><path class="cls-7" d="M347.56,398.19a19.22,19.22,0,0,1,.74-2.67,1.42,1.42,0,0,1,1.51-1c.3,0,.38.11.27.39a11,11,0,0,0-.61,2.38c-.07.53-.12,1.06-.18,1.59,0,.17.06.36-.11.5A8.2,8.2,0,0,0,347.56,398.19Z" transform="translate(-257.85 -347.6)"/><path class="cls-7" d="M339.26,405.1c-.14,1.36-.26,2.73-.44,4.09s-.39,2.79-.68,4.17a1.59,1.59,0,0,1-.07.2c-.09.25-.29.52-.52.47s-.13-.4-.1-.59c.28-1.76.47-3.53.63-5.31.09-1,.21-1.94.32-2.92Z" transform="translate(-257.85 -347.6)"/><path class="cls-8" d="M338.4,386.48c-.39.08-.46,0-.34-.42.34-1.09.65-2.19.95-3.29a.71.71,0,0,1,.35-.49c1.32-.75,2.65-1.48,4-2.16.31-.15.48-.17.67.18s-.15.43-.35.53c-1.21.61-2.43,1.2-3.65,1.79a.71.71,0,0,0-.47.58c-.21,1-.47,1.94-.69,2.91C338.82,386.41,338.71,386.56,338.4,386.48Z" transform="translate(-257.85 -347.6)"/><path class="cls-7" d="M334.21,359.65c0,.24-.21.25-.4.24-1.07-.08-2.13.2-3.2,0-.33-.06-.4-.16-.42-.46,0-.51.14-1,.13-1.49,0-.22.13-.32.34-.33h.65A24,24,0,0,1,334.21,359.65Z" transform="translate(-257.85 -347.6)"/><path class="cls-7" d="M319.86,407.26a12,12,0,0,0-3.14,4.81l-.12.24c-.35-.17-.12-.41-.05-.59a30.57,30.57,0,0,1,1.24-3c.64-1.32,1.34-2.61,1.89-4a.71.71,0,0,1,.28-.38l1.61.34a.43.43,0,0,1-.12.39C320.91,405.78,320.43,406.56,319.86,407.26Z" transform="translate(-257.85 -347.6)"/><path class="cls-7" d="M340.34,405a5.08,5.08,0,0,0-.19,1.69c-.09,1.85-.4,3.68-.57,5.52a1.14,1.14,0,0,1-.59,1c-.27.14-.41.1-.37-.23.06-.51.13-1,.22-1.53a46.87,46.87,0,0,0,.65-5c0-.43.11-.85.1-1.28A1.37,1.37,0,0,1,340.34,405Z" transform="translate(-257.85 -347.6)"/><path class="cls-7" d="M263.35,380.39a10.61,10.61,0,0,1,1.86.22c.24,0,.35.22.44.42.19.45.36.9.57,1.33s0,.42-.26.39c-.92-.1-1.84-.22-2.76-.35-.17,0-.4-.06-.43-.33A10.75,10.75,0,0,1,263.35,380.39Z" transform="translate(-257.85 -347.6)"/><path class="cls-7" d="M278.77,373.41c.23-1.62.39-3.25.49-4.92a22.85,22.85,0,0,1,2,3Z" transform="translate(-257.85 -347.6)"/><path class="cls-10" d="M270.24,368c0,1.86,0,3.72-.13,5.57s-.25,3.94-.48,5.91a5,5,0,0,0,0,2.42l-.63.79.39-4.15c0-.48.08-1,.11-1.44.07-1.43.18-2.85.26-4.28.08-1.27,0-2.54.09-3.81,0-.13.08-.26-.12-.28A2.8,2.8,0,0,1,270.24,368Z" transform="translate(-257.85 -347.6)"/><path class="cls-6" d="M270.23,381.13c.14-1.6.29-3.2.42-4.8.05-.55.1-1.11.1-1.65,0-2.32.21-4.63.13-6.95,0-.14,0-.29-.1-.39a2,2,0,0,1,.53-.65c0,1.15,0,2.3,0,3.44-.05,1.93-.11,3.86-.22,5.79-.1,1.58-.27,3.15-.41,4.73Z" transform="translate(-257.85 -347.6)"/><path class="cls-10" d="M273.9,363.87c.1,1.61,0,3.22.14,4.82.12,1.95,0,3.9.06,5.85,0,1-.12,2-.19,3l-.44.39a73.84,73.84,0,0,0,.19-9.29c0-1.32-.08-2.65-.08-4,0-.13,0-.26-.12-.34A1.42,1.42,0,0,1,273.9,363.87Z" transform="translate(-257.85 -347.6)"/><path class="cls-11" d="M260.76,391.82c.08-.06.13-.23.26,0,.37.65.78,1.28,1.16,1.92.11.18.25.36.11.6a25.34,25.34,0,0,1-1.67,2.55v-2.94A12.52,12.52,0,0,1,260.76,391.82Z" transform="translate(-257.85 -347.6)"/><path class="cls-7" d="M321.36,373.59c.14-.28.44-.28.67-.39,1.11-.52,2.2-1,3.31-1.54.16-.07.36-.32.5-.11a.61.61,0,0,1-.08.71,5.56,5.56,0,0,1-1,.81,18.37,18.37,0,0,1-2.35,1.28Z" transform="translate(-257.85 -347.6)"/><path class="cls-7" d="M307.22,410.91a.43.43,0,0,1-.42-.18,2.67,2.67,0,0,1-.66-2.85c.23-.56.39-1.14.59-1.72.29-.1.33.16.39.31a7.34,7.34,0,0,1,.34,4.22C307.44,410.81,307.4,410.94,307.22,410.91Z" transform="translate(-257.85 -347.6)"/><path class="cls-7" d="M274.12,391.39c-.37,1.3-.73,2.6-1.13,4-.3-.71-.57-1.29-.79-1.89a1.11,1.11,0,0,1,0-.74c.2-.54.39-1.08.58-1.62a.29.29,0,0,1,.26-.23A5.36,5.36,0,0,1,274.12,391.39Z" transform="translate(-257.85 -347.6)"/><path class="cls-10" d="M281.12,357.93c0,.12-.07.22.07.33a26,26,0,0,1,1.94,1.85c1.93,1.83,3.88,3.64,5.91,5.37a1.2,1.2,0,0,0,.28.13l-.43.3c-.88-.79-1.77-1.56-2.64-2.36q-2.83-2.62-5.65-5.27A1.33,1.33,0,0,1,281.12,357.93Z" transform="translate(-257.85 -347.6)"/><path class="cls-7" d="M275.71,408a9.25,9.25,0,0,0-2.35.18c-.34.07-.45-.13-.57-.35-.48-.92-.63-.8.5-1a7.89,7.89,0,0,1,2.61,0c.18,0,.37,0,.39.28A3,3,0,0,1,275.71,408Z" transform="translate(-257.85 -347.6)"/><path class="cls-10" d="M290.3,353.22c.17.42.57.63.88.9,2.14,1.86,4.32,3.67,6.57,5.41a1,1,0,0,0,.52.25,1.39,1.39,0,0,1-.53.33,24.59,24.59,0,0,0-2.24-1.81c-1.21-1-2.44-2-3.61-3l-1.81-1.6a.72.72,0,0,0-.54-.16A2.53,2.53,0,0,1,290.3,353.22Z" transform="translate(-257.85 -347.6)"/><path class="cls-10" d="M285.59,368.21a22.85,22.85,0,0,1-2.49-2.12c-1.77-1.56-3.55-3.12-5.2-4.83-.17-.18-.28-.47-.58-.52l.47-.39a9.17,9.17,0,0,0,1.8,2c.72.69,1.47,1.35,2.21,2,1.35,1.21,2.69,2.44,4.1,3.59A.49.49,0,0,1,285.59,368.21Z" transform="translate(-257.85 -347.6)"/><path class="cls-7" d="M320,372.59c1.63-.59,3.28-1.13,4.88-1.8l1.2-.49c.16.31,0,.49-.23.6a24.15,24.15,0,0,1-5,2.27Z" transform="translate(-257.85 -347.6)"/><path class="cls-10" d="M291.82,363.92l-4.38-4-3.6-3.29a.52.52,0,0,0-.33-.16,1.24,1.24,0,0,1,.53-.31c.13.42.5.64.79.92q1.76,1.63,3.56,3.24c1.2,1.08,2.42,2.15,3.64,3.23.05,0,.07.12.11.18A.64.64,0,0,1,291.82,363.92Z" transform="translate(-257.85 -347.6)"/><path class="cls-10" d="M340.13,383.94a11.26,11.26,0,0,0,2.51.42,54.21,54.21,0,0,0,7.64.34c.24,0,.54.08.53-.33a2,2,0,0,1,.19.76c-.31-.23-.62,0-.93,0-1.62,0-3.22,0-4.83-.18-1.21-.13-2.42-.23-3.63-.36-.53-.06-1.06-.14-1.58-.21A.54.54,0,0,1,340.13,383.94Z" transform="translate(-257.85 -347.6)"/><path class="cls-7" d="M268.41,387.72c-1.13-.11-2.26-.24-3.39-.3s-2,0-3.06,0c-.35,0-.5-.1-.47-.45a.09.09,0,0,1,0-.1c.08-.34.34-.37.63-.35,1.68.13,3.36.24,5,.31a1.49,1.49,0,0,1,.82.25Z" transform="translate(-257.85 -347.6)"/><path class="cls-6" d="M307.22,410.91a6.81,6.81,0,0,0,.19-2.73,5.41,5.41,0,0,0-.5-1.85.26.26,0,0,0-.18-.17c.11-.27.07-.67.51-.72a6.64,6.64,0,0,1,.86,4.53,1.89,1.89,0,0,0,.21,1.25A3.69,3.69,0,0,1,307.22,410.91Z" transform="translate(-257.85 -347.6)"/><path class="cls-10" d="M320,404.33a22.37,22.37,0,0,1-1.26,2.83,37.53,37.53,0,0,0-2,4.6c-.06.17-.24.34-.08.55-.12.35-.12.88-.75.55a66.16,66.16,0,0,1,3.78-8.63A.34.34,0,0,1,320,404.33Z" transform="translate(-257.85 -347.6)"/><path class="cls-7" d="M282,370.89a.32.32,0,0,1-.27-.14c-.91-1.35-1.82-2.7-2.67-4.1a9.6,9.6,0,0,1,.79.64c1,.94,2,1.81,3,2.68a.74.74,0,0,1,.12.17A5.53,5.53,0,0,1,282,370.89Z" transform="translate(-257.85 -347.6)"/><path class="cls-12" d="M302.29,406.55c-.81.61-1.49,1.09-2.14,1.62-.37.31-.6.34-.88-.12a16.55,16.55,0,0,0-1.07-1.35A29.84,29.84,0,0,0,302.29,406.55Z" transform="translate(-257.85 -347.6)"/><path class="cls-10" d="M318.66,440.45a9.23,9.23,0,0,0-2.14-1.59,17,17,0,0,0-5.1-2.14c-.43-.1-.58,0-.53.42a2.23,2.23,0,0,1-.08-.89,14.3,14.3,0,0,1,3.77,1.15,20.52,20.52,0,0,1,4.2,2.56,1.13,1.13,0,0,0,.56.3A1.82,1.82,0,0,1,318.66,440.45Z" transform="translate(-257.85 -347.6)"/><path class="cls-13" d="M349.52,400.77c.17-.19.1-.41.1-.62a16.69,16.69,0,0,1,.58-4.5,1.34,1.34,0,0,1,.49-.9c.15.15,0,.27,0,.37A13,13,0,0,0,350,399c-.08,1.56-.28,3.12-.4,4.68-.07,1.06-.28,2.08-.44,3.12a1.44,1.44,0,0,1-.22.59,39.87,39.87,0,0,0,.54-6.47Z" transform="translate(-257.85 -347.6)"/><path class="cls-7" d="M310.71,426.55a3.34,3.34,0,0,0,.8-.52c.22-.15.39-.13.36.19a19.63,19.63,0,0,1-.44,2.95c-.09.38-.45.58-.73.82C310.67,428.84,310.65,427.7,310.71,426.55Z" transform="translate(-257.85 -347.6)"/><path class="cls-10" d="M352,390.31a.55.55,0,0,0-.53-.34c-1.8-.16-3.62-.27-5.42-.5-.81-.11-1.63-.17-2.43-.34a1.44,1.44,0,0,1,.08-.68c0,.24.11.33.36.36,1,.12,1.9.31,2.86.4,1.42.15,2.85.22,4.27.35.46,0,.68-.09.63-.57A5.83,5.83,0,0,1,352,390.31Z" transform="translate(-257.85 -347.6)"/><path class="cls-7" d="M349.6,411.88l-3.22-1.5c.71-.63,1-.68,1.75-.33.45.22.9.43,1.36.63.22.09.37.21.36.47A2.34,2.34,0,0,1,349.6,411.88Z" transform="translate(-257.85 -347.6)"/><path class="cls-14" d="M351.21,406.37a5.2,5.2,0,0,1,.06-2.22c.15-1.75.4-3.5.72-5.24a3.29,3.29,0,0,1,.34-1.27A39.55,39.55,0,0,1,351.21,406.37Z" transform="translate(-257.85 -347.6)"/><path class="cls-10" d="M269.91,424c.33,0,.48-.31.66-.51,1.18-1.37,2.52-2.58,3.6-4a4.07,4.07,0,0,0,.72-1.11l.41.36c-.38.15-.49.54-.71.82a29,29,0,0,1-2.22,2.6c-.62.64-1.22,1.3-1.84,1.94a.63.63,0,0,0-.19.48A1.53,1.53,0,0,1,269.91,424Z" transform="translate(-257.85 -347.6)"/><path class="cls-10" d="M271.64,413.5a34.85,34.85,0,0,0-2.87,3c-.64.67-1.17,1.44-1.77,2.15a2.3,2.3,0,0,0-.32.49,1.34,1.34,0,0,1-.31-.54,5,5,0,0,0,1.24-1.36,49.21,49.21,0,0,1,3.9-4.14C271.56,413.21,271.67,413.33,271.64,413.5Z" transform="translate(-257.85 -347.6)"/><path class="cls-7" d="M346.81,403.25c0,1.31,0,2.62,0,3.93,0,.43-.07.85-.11,1.28a.4.4,0,0,1-.46.36c-.29,0-.15-.25-.12-.41a22.91,22.91,0,0,0,.15-3.7v-1.24A1.21,1.21,0,0,1,346.81,403.25Z" transform="translate(-257.85 -347.6)"/><path class="cls-6" d="M273.24,416.52c-1,.93-1.85,2-2.76,3-.62.69-1.18,1.43-1.77,2.15-.09.11-.2.2-.2.36a1.08,1.08,0,0,1-.3-.43,27.1,27.1,0,0,0,1.83-2.16c.85-.94,1.66-1.92,2.54-2.83.15-.15.35-.27.35-.51Z" transform="translate(-257.85 -347.6)"/><path class="cls-7" d="M310.9,423.74l.81-.68c.23-.18.36-.22.38.16A10.31,10.31,0,0,1,312,425c0,.26-.79.92-1.07,1,0,0-.07-.1-.11-.16A8.63,8.63,0,0,1,310.9,423.74Z" transform="translate(-257.85 -347.6)"/><path class="cls-7" d="M322.73,374.57a14.58,14.58,0,0,0,2.92-1.57,4.73,4.73,0,0,1-1.62,2.55A7.77,7.77,0,0,1,322.73,374.57Z" transform="translate(-257.85 -347.6)"/><path class="cls-7" d="M344.11,396.9a13.87,13.87,0,0,1,.77-1.87,1,1,0,0,1,1.07-.26c.15.11.12.25.05.38-.34.67-.54,1.39-.82,2.09A5.12,5.12,0,0,1,344.11,396.9Z" transform="translate(-257.85 -347.6)"/><path class="cls-15" d="M350.15,410.26c-.12.1-.19.23-.4.13-.49-.26-1-.47-1.49-.71-.1-.05-.36-.15-.13-.27a4.67,4.67,0,0,1,1.74-.76,3.66,3.66,0,0,1,.73.1A7.74,7.74,0,0,1,350.15,410.26Z" transform="translate(-257.85 -347.6)"/><path class="cls-7" d="M279.51,421.71l.18,2.88a3.8,3.8,0,0,1-.78-1.31,14.36,14.36,0,0,1-.82-2c0-.15-.16-.3,0-.43Z" transform="translate(-257.85 -347.6)"/><path class="cls-7" d="M290.6,407.89a1.48,1.48,0,0,1-.1-.75,2.69,2.69,0,0,1,1.45-1.53c.21-.08.5-.16.41.27V407c.07.19.07.41-.1.49A2.33,2.33,0,0,1,290.6,407.89Z" transform="translate(-257.85 -347.6)"/><path class="cls-11" d="M301.94,350.53a8.81,8.81,0,0,1-.61,1.54c-.12.25-.26.32-.49.11-.49-.45-1.14-.71-1.48-1.33A16,16,0,0,1,301.94,350.53Z" transform="translate(-257.85 -347.6)"/><path class="cls-6" d="M268,387.06l-5.82-.41c-.25,0-.51-.06-.67.2a3,3,0,0,1,.19-.88c.11.36.43.33.7.34,1.46.08,2.93.16,4.39.22.32,0,.65.28,1,0Z" transform="translate(-257.85 -347.6)"/><path class="cls-7" d="M345.63,397.4a6.2,6.2,0,0,1,.8-2.2.46.46,0,0,1,.65-.21c.29.14.13.39,0,.56-.33.67-.39,1.44-.76,2.1Z" transform="translate(-257.85 -347.6)"/><path class="cls-16" d="M315.54,441.19c.12-.2,0-.28-.17-.38a11.68,11.68,0,0,0-3.92-2.05c-.15-.05-.39-.27-.46.1a1.06,1.06,0,0,1-.07-.56,10.52,10.52,0,0,1,4.4,2c.35.26.58.71,1.09.72A2.39,2.39,0,0,1,315.54,441.19Z" transform="translate(-257.85 -347.6)"/><path class="cls-11" d="M278.33,432.46c.43-.74.82-1.5,1.26-2.27a11.78,11.78,0,0,1,0,1.88c-.07.39.11.83-.2,1.18A6.63,6.63,0,0,1,278.33,432.46Z" transform="translate(-257.85 -347.6)"/><path class="cls-7" d="M343.16,394.84a6,6,0,0,1,1-.12c.26,0,.31.11.22.32l-.75,1.74c-.49,0-.77-.15-.66-.72C343.1,395.66,343.12,395.25,343.16,394.84Z" transform="translate(-257.85 -347.6)"/><path class="cls-6" d="M344.66,380.06l4.29.32c.19,0,.4.07.56-.1a1.31,1.31,0,0,1,.2.54c-1.43-.07-2.85-.13-4.26-.32-.18,0-.37-.06-.49.13Z" transform="translate(-257.85 -347.6)"/><path class="cls-17" d="M264.21,378.23c.22-.13.28,0,.35.19l.53,1.29c.06.13.13.27,0,.39s-.23,0-.36,0l-1.22-.17A10.3,10.3,0,0,1,264.21,378.23Z" transform="translate(-257.85 -347.6)"/><path class="cls-18" d="M330.64,392.68a9.36,9.36,0,0,1,1.28-1c.57.45.64.9.24,1.69-.27.41-.6.12-.91.07S330.58,393.14,330.64,392.68Z" transform="translate(-257.85 -347.6)"/><path class="cls-19" d="M326.12,393.06c-.12.23-.34.16-.52.16a3.25,3.25,0,0,0-2.61.86c-.2.22-.5.1-.77.18C322.58,393.15,325,392.42,326.12,393.06Z" transform="translate(-257.85 -347.6)"/><path class="cls-7" d="M273.92,410l0,0c-.84-1.4-.67-1.31.62-1.52a5,5,0,0,1,.94-.07A7.53,7.53,0,0,1,273.92,410Z" transform="translate(-257.85 -347.6)"/><path class="cls-6" d="M292.36,405.88c0-.16-.08-.24-.28-.19a1.72,1.72,0,0,0-1,.77,7.68,7.68,0,0,1-.6.68,3.34,3.34,0,0,1-.19-1,4.13,4.13,0,0,1,1-1.16c.28.1.55.22.84.31S292.53,405.57,292.36,405.88Z" transform="translate(-257.85 -347.6)"/><path class="cls-20" d="M333.32,394,332,394a.24.24,0,0,1-.07-.13c0-.16.12-.28.15-.44a1.66,1.66,0,0,1,1.32-1,.55.55,0,0,1,.23.31c.06.17.19.31.19.5a1,1,0,0,1-.32.7A.83.83,0,0,1,333.32,394Z" transform="translate(-257.85 -347.6)"/><path class="cls-11" d="M311.25,421.05c.26,0,.53-.41.69-.18a1.14,1.14,0,0,1,0,1.21,3.19,3.19,0,0,1-.39.5c-.21.21-.44.41-.66.62A9.18,9.18,0,0,1,311.25,421.05Z" transform="translate(-257.85 -347.6)"/><path class="cls-7" d="M272.5,390.66c-.16.51-.31,1-.47,1.54-.06.2-.16.25-.32.06a1.59,1.59,0,0,1,0-2Z" transform="translate(-257.85 -347.6)"/><path class="cls-17" d="M292.44,407.78c.06.8.06.8-.7,1.06l-.25.09c-.75.28-.75.28-.85-.51A2.19,2.19,0,0,1,292.44,407.78Z" transform="translate(-257.85 -347.6)"/><path class="cls-21" d="M328.05,391.8a5.18,5.18,0,0,0-2.6.71c-.25.16-.53,0-.82.09.71-.86,2.37-1.19,4.81-1-.05.25-.25.12-.38.14A6.77,6.77,0,0,0,328.05,391.8Z" transform="translate(-257.85 -347.6)"/><path class="cls-22" d="M296.52,438.14c0,.85,0,1.7,0,2.56,0,.16,0,.37-.23.27s-.61.06-.54-.3c.15-.86.39-1.71.6-2.56Z" transform="translate(-257.85 -347.6)"/><path class="cls-10" d="M319.86,407.26a11.79,11.79,0,0,1,1.27-2,6.61,6.61,0,0,1,.44-.6.75.75,0,0,1,.44.1c-.1.66-.66,1-1,1.57-.05.11-.18.18-.22.3A4.7,4.7,0,0,1,319.86,407.26Z" transform="translate(-257.85 -347.6)"/><path class="cls-23" d="M320.83,406.64c.21-.74.82-1.22,1.18-1.87a1.21,1.21,0,0,1,.7.13C322.38,405.81,321.56,406.17,320.83,406.64Z" transform="translate(-257.85 -347.6)"/><path class="cls-24" d="M336.39,392.47a3.73,3.73,0,0,1,.81,1.42c.09.29.14.55-.33.42a2.32,2.32,0,0,0-.53-.05,2.12,2.12,0,0,1-.24-1.33C336.15,392.74,336.17,392.54,336.39,392.47Z" transform="translate(-257.85 -347.6)"/><path class="cls-25" d="M332.06,391.57a.64.64,0,0,1,.89-.12,5.26,5.26,0,0,1,1,.65c-.34.3-.84.23-1.19.53-.11.09-.29,0-.34-.18A4.92,4.92,0,0,1,332.06,391.57Z" transform="translate(-257.85 -347.6)"/><path class="cls-17" d="M291.27,405a3.6,3.6,0,0,1-1,1.16l-.4-1.78Z" transform="translate(-257.85 -347.6)"/><path class="cls-13" d="M346.81,397.85a8.2,8.2,0,0,1,1-2.62,11,11,0,0,1-.7,2.75A.44.44,0,0,1,346.81,397.85Z" transform="translate(-257.85 -347.6)"/><path class="cls-26" d="M323.68,394.06a2.51,2.51,0,0,1,2.07-.61C325.57,394.06,325.29,394.15,323.68,394.06Z" transform="translate(-257.85 -347.6)"/><path class="cls-27" d="M332.06,391.57c.31.18.36.51.47.8s.19.28.38.11a1.55,1.55,0,0,1,1.07-.38l.12.14a.53.53,0,0,1-.37.23.36.36,0,0,1-.29,0,2.48,2.48,0,0,0-1.28,1c-.07,0-.07-.1-.11-.15.5-.59.16-1.1-.13-1.62Z" transform="translate(-257.85 -347.6)"/><path class="cls-14" d="M285.33,431.53a1.47,1.47,0,0,1-1.26.26c-.24,0-.18-.54.11-.84Z" transform="translate(-257.85 -347.6)"/><path class="cls-28" d="M292.44,407.78a8,8,0,0,0-1.8.64l0-.53a10.93,10.93,0,0,0,1.48-.44c.26-.06.25-.27.28-.46A2.36,2.36,0,0,1,292.44,407.78Z" transform="translate(-257.85 -347.6)"/><path class="cls-25" d="M330,393.87h-.89a10,10,0,0,1,1.4-1.08c.36.49.33.64-.19,1C330.19,393.86,330.09,393.92,330,393.87Z" transform="translate(-257.85 -347.6)"/><path class="cls-29" d="M326.75,394a2,2,0,0,1,2.51-1.33C328.37,393,327.25,392.88,326.75,394Z" transform="translate(-257.85 -347.6)"/><path class="cls-30" d="M286.75,437.65,289,438c-.18.65-.18.66-.77.39Z" transform="translate(-257.85 -347.6)"/><path class="cls-31" d="M333.32,394l.1-.14c.23.09.23-.14.31-.24s.21-.37.44-.41.29-.11.43,0,.07.21.1.31c.1.38.06.64-.44.56C334,394,333.62,394.16,333.32,394Z" transform="translate(-257.85 -347.6)"/><path class="cls-32" d="M333.67,392.37l.43-.13a2.17,2.17,0,0,1,.49.86,1,1,0,0,1-.44.17c-.13,0-.27.07-.39,0l-.22-.43C333.67,392.68,333.5,392.47,333.67,392.37Z" transform="translate(-257.85 -347.6)"/><path class="cls-33" d="M335.6,393.12l-.2-.66c0-.25,0-.58.32-.67a1.64,1.64,0,0,1,.61.53c-.08.18-.17.34-.25.51S335.85,393.17,335.6,393.12Z" transform="translate(-257.85 -347.6)"/><path class="cls-13" d="M310.7,430.43c.15-.05.3-.27.47-.13s0,.29,0,.44c-.15.58-.29,1.15-.43,1.73Z" transform="translate(-257.85 -347.6)"/><path class="cls-34" d="M332,393.87v.1a7.16,7.16,0,0,1-1.53-.1c.05-.46.34-.55.74-.48S332,393.42,332,393.87Z" transform="translate(-257.85 -347.6)"/><path class="cls-22" d="M327.21,393.84a1.36,1.36,0,0,1,1.36-.69C328.17,393.46,327.93,394.05,327.21,393.84Z" transform="translate(-257.85 -347.6)"/><path class="cls-35" d="M329.34,409.08a3.42,3.42,0,0,0-.11,1.19l-.19-.18C328.5,409.42,328.5,409.42,329.34,409.08Z" transform="translate(-257.85 -347.6)"/><path class="cls-36" d="M336,392.76a.47.47,0,0,1,.31-.44l.06.15a1.56,1.56,0,0,0-.09,1.27,1.75,1.75,0,0,1,0,.52l-.21-.06a1.33,1.33,0,0,1-.21-1.17A1.48,1.48,0,0,1,336,392.76Z" transform="translate(-257.85 -347.6)"/><path class="cls-37" d="M336,393a4,4,0,0,0,.11,1.19c-.67.07-.32-.53-.51-.77C335.69,393.23,335.72,393,336,393Z" transform="translate(-257.85 -347.6)"/><path class="cls-27" d="M331.28,393.44c-.38-.09-.58.17-.77.43l-.11,0c-.12,0-.23,0-.21-.13a.64.64,0,0,0,.3-1l.15-.11c.13.3.27.59.64.68,0,0,0,0,0,.05S331.29,393.44,331.28,393.44Z" transform="translate(-257.85 -347.6)"/><path class="cls-38" d="M327.18,392.77c-.2.21-.38.42-.59.62s-.22.52-.66.65a3.73,3.73,0,0,1,1.15-1.36C327.18,392.64,327.2,392.69,327.18,392.77Z" transform="translate(-257.85 -347.6)"/><path class="cls-39" d="M327.5,392.14c-.47.05-.78.66-1.38.4a2.19,2.19,0,0,1,1.39-.51s.05.05,0,.07S327.52,392.14,327.5,392.14Z" transform="translate(-257.85 -347.6)"/><path class="cls-40" d="M310.25,411.74c.07-.25.17-.6.41-.54s.07.43.13.66Z" transform="translate(-257.85 -347.6)"/><path class="cls-41" d="M327.18,392.77l-.1-.09a2.51,2.51,0,0,1,1.51-.52c.05,0,.11,0,.13.1A6.06,6.06,0,0,0,327.18,392.77Z" transform="translate(-257.85 -347.6)"/><path class="cls-42" d="M265.29,375.86c.15.32-.05.6-.1.9,0,.06-.06.14-.15.11s-.08-.17-.09-.27Z" transform="translate(-257.85 -347.6)"/><path class="cls-43" d="M328.05,391.8c.44-.24.95.06,1.39-.18l.57.11v.07Z" transform="translate(-257.85 -347.6)"/><path class="cls-44" d="M271.22,390.05c0,.14-.06.4-.26.29a.38.38,0,0,1-.18-.57Z" transform="translate(-257.85 -347.6)"/><path class="cls-45" d="M335.72,391.79c-.2.18-.18.46-.32.67l-.12-.5a.31.31,0,0,1,.21-.35A.33.33,0,0,1,335.72,391.79Z" transform="translate(-257.85 -347.6)"/><path class="cls-46" d="M335.49,391.61l-.21.35-.29-.4A.43.43,0,0,1,335.49,391.61Z" transform="translate(-257.85 -347.6)"/><path class="cls-8" d="M328.72,392.26l-.13-.1h1.11v.1Z" transform="translate(-257.85 -347.6)"/><path class="cls-47" d="M308.42,442.06c.33-.19.69-.05,1-.1C309.13,442.2,308.76,442,308.42,442.06Z" transform="translate(-257.85 -347.6)"/><path class="cls-48" d="M336,393c-.22.05-.25.29-.4.42l0-.31.42-.36Z" transform="translate(-257.85 -347.6)"/><path class="cls-49" d="M272.29,381l.14.12a.66.66,0,0,1-.46.2A.56.56,0,0,1,272.29,381Z" transform="translate(-257.85 -347.6)"/><path class="cls-50" d="M327.5,392.14V392c.1-.06.2-.14.33-.08C327.78,392.11,327.65,392.14,327.5,392.14Z" transform="translate(-257.85 -347.6)"/><path class="cls-51" d="M334.19,393.22a.52.52,0,0,1,.4-.12v.11l-.41.1s0,0,0-.06Z" transform="translate(-257.85 -347.6)"/><path class="cls-34" d="M330.19,393.76c0,.14.13.1.21.13a.3.3,0,0,1-.42,0Z" transform="translate(-257.85 -347.6)"/><path class="cls-1" d="M299.61,401a6.23,6.23,0,0,1-5.25-2.82c-.36-.52-.31-.84.13-1.13s1.08-.32,1.36.16a4.36,4.36,0,0,0,7.15.14c.17-.23.35-.45.52-.69s.43-.65.9-.37a1,1,0,0,1,.47,1.23,4.73,4.73,0,0,1-.61.94A6.05,6.05,0,0,1,299.61,401Z" transform="translate(-257.85 -347.6)"/><path class="cls-1" d="M306.21,387.41a4.18,4.18,0,0,1,4,2.79c.15.41.33.49.7.38a2.84,2.84,0,0,1,.42-.05c.23,0,.26.15.32.29s-.07.21-.19.26c-.63.26-1.26.51-1.88.79-.26.12-.3,0-.36-.2a3.94,3.94,0,0,0-1.25-1.78,2.9,2.9,0,0,0-2.38-.55,1.91,1.91,0,0,0-1.48,1.77c0,.36-.15.35-.42.25-1-.36-1.06-.41-.66-1.44a3.5,3.5,0,0,1,2.54-2.46l.26,0C306,387.4,306.08,387.41,306.21,387.41Z" transform="translate(-257.85 -347.6)"/><path class="cls-7" d="M312.34,428.59c0,.73,0,1.47-.07,2.18s-.07,1.18-.16,1.76a1.18,1.18,0,0,1-.83,1C311.65,431.83,312,430.21,312.34,428.59Z" transform="translate(-257.85 -347.6)"/><path class="cls-7" d="M271.82,395.92c-1.11,0-2.17,0-3.22,0a8.16,8.16,0,0,0-1.64.19.52.52,0,0,1-.64-.23c-.38-.6-.8-1.19-1.21-1.77-.2-.29-.22-.44.2-.45,1.77-.06,3.54.07,5.31.11a.52.52,0,0,1,.49.36C271.35,394.69,271.57,395.27,271.82,395.92Z" transform="translate(-257.85 -347.6)"/><path class="cls-7" d="M269.76,396.34c.57.06,1.21,0,1.86.07a.73.73,0,0,1,.62.49c.15.38.31.76.45,1.15s.07.37-.28.31a15.92,15.92,0,0,0-2.58-.4,5.17,5.17,0,0,0-1.47.21c-.13,0-.27.17-.41,0a4.27,4.27,0,0,1-.95-1.47c-.1-.26.18-.24.34-.27A12.79,12.79,0,0,1,269.76,396.34Z" transform="translate(-257.85 -347.6)"/><path class="cls-7" d="M265.26,391.9l4.7.24c.3,0,.85.9.74,1.16s-.24.14-.38.13c-1.71-.16-3.42-.22-5.13-.21a1.43,1.43,0,0,1-1.38-1c-.07-.25.09-.27.26-.27h1.19Z" transform="translate(-257.85 -347.6)"/><path class="cls-7" d="M269.86,398.4a9.71,9.71,0,0,1,2.68.4,1.2,1.2,0,0,1,.49.21,1,1,0,0,1,.36.9c0,.22-.42.12-.63.09a17.35,17.35,0,0,0-3.53,0,.35.35,0,0,1-.32-.15,3.51,3.51,0,0,1-.27-.4c-.45-.79-.32-1,.62-1Z" transform="translate(-257.85 -347.6)"/><path class="cls-7" d="M274.29,404.87h.32a1.17,1.17,0,0,1,1.32,1.17c.05.28-.1.38-.33.33a8.67,8.67,0,0,0-3.17.21.36.36,0,0,1-.43-.23c-.43-.86-.33-1.09.59-1.31a5,5,0,0,1,.84-.16,8.19,8.19,0,0,1,.86,0Z" transform="translate(-257.85 -347.6)"/><path class="cls-7" d="M269.43,391.68l-5.85-.18c-.47,0-.55-.42-.72-.7s.12-.17.24-.16c.44,0,.89.11,1.33.09,1.61-.06,3.21.15,4.82.12.43,0,.74.2.71.62S269.54,391.64,269.43,391.68Z" transform="translate(-257.85 -347.6)"/><path class="cls-7" d="M274.1,401.52a15,15,0,0,0-3.17.21c-.25,0-.55.33-.75.08a7,7,0,0,1-.77-1.22c-.09-.18.07-.25.23-.25a22.74,22.74,0,0,1,3.87.13C274,400.56,273.89,401.12,274.1,401.52Z" transform="translate(-257.85 -347.6)"/><path class="cls-7" d="M273.46,403.25h.7a.93.93,0,0,1,1,.85c0,.23-.05.34-.28.33a8.57,8.57,0,0,0-3.06.39c-.15.05-.22,0-.3-.15-.63-.86-.5-1.14.54-1.33A9.67,9.67,0,0,1,273.46,403.25Z" transform="translate(-257.85 -347.6)"/><path class="cls-7" d="M272.71,402a6.06,6.06,0,0,1,1.4.1.51.51,0,0,1,.42.54c0,.35-.31.22-.5.22a12.22,12.22,0,0,0-2.76.3c-.47.11-.62-.23-.71-.54s.26-.34.47-.4A4.69,4.69,0,0,1,272.71,402Z" transform="translate(-257.85 -347.6)"/><path class="cls-11" d="M282.27,433.15a5.38,5.38,0,0,1,0-2.15.3.3,0,0,1,.23-.33c.14,0,.19.1.17.21C282.52,431.64,282.39,432.39,282.27,433.15Z" transform="translate(-257.85 -347.6)"/><path class="cls-52" d="M331.28,393.44a.11.11,0,0,1,0-.08c.26,0,.53.31.77,0l.11.15-.12.39C331.88,393.55,331.5,393.64,331.28,393.44Z" transform="translate(-257.85 -347.6)"/><path class="cls-53" d="M334.19,393.22v.09c-.27.08-.33.36-.48.54s-.18.27-.29,0a1,1,0,0,0,.34-.64Z" transform="translate(-257.85 -347.6)"/><path class="cls-54" d="M333.67,392.37c-.08.13.11.34-.13.42l-.1-.33Z" transform="translate(-257.85 -347.6)"/></svg>